<?xml version="1.0" encoding="utf-8"?>
<!-- Generator: Adobe Illustrator 27.5.0, SVG Export Plug-In . SVG Version: 6.00 Build 0)  -->
<svg version="1.1" xmlns="http://www.w3.org/2000/svg" xmlns:xlink="http://www.w3.org/1999/xlink" x="0px" y="0px"
	 viewBox="0 0 500 500" style="enable-background:new 0 0 500 500;" xml:space="preserve">
<g id="BACKGROUND_2">
</g>
<g id="BACKGROUND_1">
	<g>
		<defs>
			<rect id="SVGID_00000106111302101226297310000010263503867211192247_" width="500" height="500"/>
		</defs>
		<clipPath id="SVGID_00000176040305909832760490000003544340055577916589_">
			<use xlink:href="#SVGID_00000106111302101226297310000010263503867211192247_"  style="overflow:visible;"/>
		</clipPath>
		
			<rect x="-125" style="clip-path:url(#SVGID_00000176040305909832760490000003544340055577916589_);fill:#002E61;" width="750" height="500"/>
		<g style="clip-path:url(#SVGID_00000176040305909832760490000003544340055577916589_);">
			
				<radialGradient id="SVGID_00000124123863574486289500000010569206804479683745_" cx="-425.687" cy="-360.375" r="219.3602" gradientTransform="matrix(0.9748 -0.2231 0.2231 0.9748 490.6426 542.4335)" gradientUnits="userSpaceOnUse">
				<stop  offset="0" style="stop-color:#00FFFF;stop-opacity:0.3"/>
				<stop  offset="0.5132" style="stop-color:#00FFFF"/>
				<stop  offset="1" style="stop-color:#00FFFF;stop-opacity:0.4"/>
			</radialGradient>
			<path style="fill:none;stroke:url(#SVGID_00000124123863574486289500000010569206804479683745_);stroke-miterlimit:10;" d="
				M-107.071,0.623c-24.5,77.754-0.994,249.57,70.76,310.064c87.238,73.547,110.072,34.08,136.86,109.919
				C124.627,488.77,31.882,586.48,31.882,586.48"/>
			
				<radialGradient id="SVGID_00000105418270888970146110000017631079132346064532_" cx="-421.0274" cy="-360.7665" r="219.5588" gradientTransform="matrix(0.9748 -0.2231 0.2231 0.9748 490.6426 542.4335)" gradientUnits="userSpaceOnUse">
				<stop  offset="0" style="stop-color:#00FFFF;stop-opacity:0.3"/>
				<stop  offset="0.5132" style="stop-color:#00FFFF"/>
				<stop  offset="1" style="stop-color:#00FFFF;stop-opacity:0.4"/>
			</radialGradient>
			<path style="fill:none;stroke:url(#SVGID_00000105418270888970146110000017631079132346064532_);stroke-miterlimit:10;" d="
				M-92.293-3.585c-20.89,57.645-17.955,170.051,11.35,246.971c10.548,27.687,24.261,52.083,41.786,68.831
				c20.664,19.875,38.655,31.926,54.474,38.476c45.815,18.973,64.512,12.846,87.26,64.736c3.851,8.786,5.959,17.982,6.535,27.562
				c3.746,62.302-58.167,139.191-58.167,139.191"/>
			
				<radialGradient id="SVGID_00000037673868439249697060000014344575961004175276_" cx="-416.6196" cy="-361.1589" r="219.9511" gradientTransform="matrix(0.9748 -0.2231 0.2231 0.9748 490.6426 542.4335)" gradientUnits="userSpaceOnUse">
				<stop  offset="0" style="stop-color:#00FFFF;stop-opacity:0.3"/>
				<stop  offset="0.5132" style="stop-color:#00FFFF"/>
				<stop  offset="1" style="stop-color:#00FFFF;stop-opacity:0.4"/>
			</radialGradient>
			<path style="fill:none;stroke:url(#SVGID_00000037673868439249697060000014344575961004175276_);stroke-miterlimit:10;" d="
				M-77.515-7.794c-23.635,57.702-26.072,173.452-1.962,249.827c8.945,28.336,21.085,53.86,37.474,71.714
				c19.488,21.23,37.516,34.071,54.34,39.316c47.138,14.696,67.153,10.267,92.268,57.191c4.481,8.373,7.568,16.991,9.194,26.129
				c10.851,60.96-43.79,141.502-43.79,141.502"/>
			
				<radialGradient id="SVGID_00000171713176510478326490000010678974085469414529_" cx="-412.2433" cy="-361.5518" r="220.5455" gradientTransform="matrix(0.9748 -0.2231 0.2231 0.9748 490.6426 542.4335)" gradientUnits="userSpaceOnUse">
				<stop  offset="0" style="stop-color:#00FFFF;stop-opacity:0.3"/>
				<stop  offset="0.5132" style="stop-color:#00FFFF"/>
				<stop  offset="1" style="stop-color:#00FFFF;stop-opacity:0.4"/>
			</radialGradient>
			<path style="fill:none;stroke:url(#SVGID_00000171713176510478326490000010678974085469414529_);stroke-miterlimit:10;" d="
				M-62.737-12.002c-26.379,57.759-34.328,176.962-15.275,252.682c7.303,29.024,17.879,55.673,33.163,74.597
				c18.275,22.628,36.339,36.256,54.206,40.156c48.35,10.554,70.155,7.685,97.276,49.644c5.158,7.98,9.214,16.017,11.854,24.697
				c18.17,59.75-29.414,143.813-29.414,143.813"/>
			
				<radialGradient id="SVGID_00000175293749116521512450000004723230814513216133_" cx="-407.7564" cy="-361.945" r="221.3518" gradientTransform="matrix(0.9748 -0.2231 0.2231 0.9748 490.6426 542.4335)" gradientUnits="userSpaceOnUse">
				<stop  offset="0" style="stop-color:#00FFFF;stop-opacity:0.3"/>
				<stop  offset="0.5132" style="stop-color:#00FFFF"/>
				<stop  offset="1" style="stop-color:#00FFFF;stop-opacity:0.4"/>
			</radialGradient>
			<path style="fill:none;stroke:url(#SVGID_00000175293749116521512450000004723230814513216133_);stroke-miterlimit:10;" d="
				M-47.959-16.21c-29.124,57.816-42.738,180.558-28.587,255.538c5.613,29.744,14.667,57.493,28.851,77.48
				c17.057,24.034,35.136,38.488,54.072,40.996c49.491,6.556,73.531,5.028,102.284,42.098c5.889,7.593,10.902,15.047,14.513,23.265
				c25.745,58.582-15.037,146.123-15.037,146.123"/>
			
				<radialGradient id="SVGID_00000151544343266264715640000010112133418449391794_" cx="-403.1207" cy="-362.338" r="222.41" gradientTransform="matrix(0.9748 -0.2231 0.2231 0.9748 490.6426 542.4335)" gradientUnits="userSpaceOnUse">
				<stop  offset="0" style="stop-color:#00FFFF;stop-opacity:0.3"/>
				<stop  offset="0.5132" style="stop-color:#00FFFF"/>
				<stop  offset="1" style="stop-color:#00FFFF;stop-opacity:0.4"/>
			</radialGradient>
			<path style="fill:none;stroke:url(#SVGID_00000151544343266264715640000010112133418449391794_);stroke-miterlimit:10;" d="
				M-33.181-20.418c-31.868,57.873-51.307,184.213-41.9,258.394c3.866,30.487,11.449,59.319,24.539,80.363
				c15.83,25.447,33.921,40.77,53.938,41.836c50.601,2.695,77.263,2.225,107.292,34.552c6.679,7.19,12.627,14.068,17.173,21.833
				c33.577,57.357-0.661,148.434-0.661,148.434"/>
			
				<radialGradient id="SVGID_00000130624964767828752440000012052059516457794713_" cx="-398.1885" cy="-362.7306" r="223.74" gradientTransform="matrix(0.9748 -0.2231 0.2231 0.9748 490.6426 542.4335)" gradientUnits="userSpaceOnUse">
				<stop  offset="0" style="stop-color:#00FFFF;stop-opacity:0.3"/>
				<stop  offset="0.5132" style="stop-color:#00FFFF"/>
				<stop  offset="1" style="stop-color:#00FFFF;stop-opacity:0.4"/>
			</radialGradient>
			<path style="fill:none;stroke:url(#SVGID_00000130624964767828752440000012052059516457794713_);stroke-miterlimit:10;" d="
				M-18.403-24.626c-34.613,57.93-60.038,187.897-55.212,261.249c2.055,31.242,8.223,61.15,20.228,83.245
				c14.596,26.865,32.717,41.865,53.803,42.676c51.684,1.987,81.296-0.788,112.3,27.006c7.528,6.749,14.382,13.07,19.832,20.401
				c41.628,55.99,13.715,150.745,13.715,150.745"/>
			
				<radialGradient id="SVGID_00000001663600014068712630000003416862762230960801_" cx="-392.8567" cy="-363.1226" r="225.3583" gradientTransform="matrix(0.9748 -0.2231 0.2231 0.9748 490.6426 542.4335)" gradientUnits="userSpaceOnUse">
				<stop  offset="0" style="stop-color:#00FFFF;stop-opacity:0.3"/>
				<stop  offset="0.5132" style="stop-color:#00FFFF"/>
				<stop  offset="1" style="stop-color:#00FFFF;stop-opacity:0.4"/>
			</radialGradient>
			<path style="fill:none;stroke:url(#SVGID_00000001663600014068712630000003416862762230960801_);stroke-miterlimit:10;" d="
				M-3.625-28.834C-40.982,29.152-72.549,162.748-72.149,235.27c0.176,31.997,4.991,62.983,15.916,86.128
				c13.352,28.287,31.502,45.479,53.669,43.516c52.849-4.68,85.547-4.057,117.308,19.46c8.432,6.243,16.155,12.048,22.492,18.969
				c49.837,54.431,28.092,153.055,28.092,153.055"/>
			
				<radialGradient id="SVGID_00000087397686636154873870000017662223949726374069_" cx="-387.0846" cy="-363.5138" r="227.2804" gradientTransform="matrix(0.9748 -0.2231 0.2231 0.9748 490.6426 542.4335)" gradientUnits="userSpaceOnUse">
				<stop  offset="0" style="stop-color:#00FFFF;stop-opacity:0.3"/>
				<stop  offset="0.5132" style="stop-color:#00FFFF"/>
				<stop  offset="1" style="stop-color:#00FFFF;stop-opacity:0.4"/>
			</radialGradient>
			<path style="fill:none;stroke:url(#SVGID_00000087397686636154873870000017662223949726374069_);stroke-miterlimit:10;" d="
				M11.153-33.043c-40.102,58.043-77.952,195.239-81.837,266.961c-1.773,32.74,1.752,64.818,11.605,89.011
				c12.1,29.711,30.314,47.896,53.535,44.356c54.026-8.236,89.913-7.608,122.316,11.914c9.378,5.65,17.937,11.001,25.151,17.536
				c58.135,52.663,42.468,155.366,42.468,155.366"/>
			
				<radialGradient id="SVGID_00000173859631668280582080000005666180551214279067_" cx="-380.877" cy="-363.904" r="229.5194" gradientTransform="matrix(0.9748 -0.2231 0.2231 0.9748 490.6426 542.4335)" gradientUnits="userSpaceOnUse">
				<stop  offset="0" style="stop-color:#00FFFF;stop-opacity:0.3"/>
				<stop  offset="0.5132" style="stop-color:#00FFFF"/>
				<stop  offset="1" style="stop-color:#00FFFF;stop-opacity:0.4"/>
			</radialGradient>
			<path style="fill:none;stroke:url(#SVGID_00000173859631668280582080000005666180551214279067_);stroke-miterlimit:10;" d="
				M25.931-37.251c-42.846,58.1-87.107,198.843-95.15,269.816c-3.792,33.46-1.494,66.653,7.293,91.894
				c10.839,31.135,29.147,50.345,53.401,45.196c55.253-11.731,94.286-11.44,127.324,4.368c10.347,4.951,19.719,9.932,27.811,16.104
				c66.464,50.7,56.845,157.677,56.845,157.677"/>
			
				<radialGradient id="SVGID_00000026849138045993568390000011886109163552967829_" cx="-374.2705" cy="-364.2931" r="232.0873" gradientTransform="matrix(0.9748 -0.2231 0.2231 0.9748 490.6426 542.4335)" gradientUnits="userSpaceOnUse">
				<stop  offset="0" style="stop-color:#00FFFF;stop-opacity:0.3"/>
				<stop  offset="0.5132" style="stop-color:#00FFFF"/>
				<stop  offset="1" style="stop-color:#00FFFF;stop-opacity:0.4"/>
			</radialGradient>
			<path style="fill:none;stroke:url(#SVGID_00000026849138045993568390000011886109163552967829_);stroke-miterlimit:10;" d="
				M40.709-41.459C-4.881,16.698-55.659,160.915-67.753,231.213c-5.875,34.147-4.777,68.496,2.982,94.777
				c9.532,32.57,28.003,52.82,53.267,46.035c56.534-15.182,98.564-15.53,132.332-3.178c11.318,4.14,21.496,8.843,30.47,14.672
				c74.778,48.57,71.221,159.987,71.221,159.987"/>
			
				<radialGradient id="SVGID_00000134238356148642089750000010930653613742055861_" cx="-367.3011" cy="-364.6811" r="234.989" gradientTransform="matrix(0.9748 -0.2231 0.2231 0.9748 490.6426 542.4335)" gradientUnits="userSpaceOnUse">
				<stop  offset="0" style="stop-color:#00FFFF;stop-opacity:0.3"/>
				<stop  offset="0.5132" style="stop-color:#00FFFF"/>
				<stop  offset="1" style="stop-color:#00FFFF;stop-opacity:0.4"/>
			</radialGradient>
			<path style="fill:none;stroke:url(#SVGID_00000134238356148642089750000010930653613742055861_);stroke-miterlimit:10;" d="
				M55.487-45.667C7.152,12.547-50.226,160.149-66.288,229.86c-17.98,78.039,4.43,159.764,51.803,144.535
				c78.337-25.184,132.72-18.533,170.47,2.516c83.05,46.307,85.598,162.298,85.598,162.298"/>
		</g>
		<g style="clip-path:url(#SVGID_00000176040305909832760490000003544340055577916589_);">
			
				<radialGradient id="SVGID_00000159447021066709329630000016343481043201588155_" cx="501.7865" cy="34.8804" r="169.9054" gradientUnits="userSpaceOnUse">
				<stop  offset="0" style="stop-color:#00FFFF;stop-opacity:0.3"/>
				<stop  offset="0.5132" style="stop-color:#00FFFF"/>
				<stop  offset="1" style="stop-color:#00FFFF;stop-opacity:0.1"/>
			</radialGradient>
			<path style="fill:none;stroke:url(#SVGID_00000159447021066709329630000016343481043201588155_);stroke-miterlimit:10;" d="
				M279.656-53.213C270.274,51.556,333.34,179.946,497.017,94.732c118.997-61.953,198.382-29.861,227.94,1.386"/>
			
				<radialGradient id="SVGID_00000068664866999484252760000001755264481236238995_" cx="508.7022" cy="34.7651" r="161.095" gradientUnits="userSpaceOnUse">
				<stop  offset="0" style="stop-color:#00FFFF;stop-opacity:0.3"/>
				<stop  offset="0.5132" style="stop-color:#00FFFF"/>
				<stop  offset="1" style="stop-color:#00FFFF;stop-opacity:0.1"/>
			</radialGradient>
			<path style="fill:none;stroke:url(#SVGID_00000068664866999484252760000001755264481236238995_);stroke-miterlimit:10;" d="
				M301.702-52.874c-14.949,95.531,28.102,225.761,196.657,149.361c120.462-54.601,195.013-14.134,220.18,25.727"/>
			
				<radialGradient id="SVGID_00000000923008966200151990000004671828817235218090_" cx="514.7854" cy="47.9284" r="156.9057" gradientUnits="userSpaceOnUse">
				<stop  offset="0" style="stop-color:#00FFFF;stop-opacity:0.3"/>
				<stop  offset="0.5132" style="stop-color:#00FFFF"/>
				<stop  offset="1" style="stop-color:#00FFFF;stop-opacity:0.1"/>
			</radialGradient>
			<path style="fill:none;stroke:url(#SVGID_00000000923008966200151990000004671828817235218090_);stroke-miterlimit:10;" d="
				M323.748-52.535c-20.516,86.294,2.377,218.247,175.954,150.777C621.522,50.89,691.345,99.834,712.12,148.31"/>
			
				<radialGradient id="SVGID_00000001646250886395451960000018247845802996142481_" cx="519.7632" cy="61.094" r="154.3099" gradientUnits="userSpaceOnUse">
				<stop  offset="0" style="stop-color:#00FFFF;stop-opacity:0.3"/>
				<stop  offset="0.5132" style="stop-color:#00FFFF"/>
				<stop  offset="1" style="stop-color:#00FFFF;stop-opacity:0.1"/>
			</radialGradient>
			<path style="fill:none;stroke:url(#SVGID_00000001646250886395451960000018247845802996142481_);stroke-miterlimit:10;" d="
				M345.794-52.195c-26.082,77.056-23.471,210.588,155.25,152.193c123.09-40.218,188.274,17.318,204.658,74.408"/>
			
				<radialGradient id="SVGID_00000012470789289714238170000011671993160210687115_" cx="523.5142" cy="74.2618" r="153.3416" gradientUnits="userSpaceOnUse">
				<stop  offset="0" style="stop-color:#00FFFF;stop-opacity:0.3"/>
				<stop  offset="0.5132" style="stop-color:#00FFFF"/>
				<stop  offset="1" style="stop-color:#00FFFF;stop-opacity:0.1"/>
			</radialGradient>
			<path style="fill:none;stroke:url(#SVGID_00000012470789289714238170000011671993160210687115_);stroke-miterlimit:10;" d="
				M367.84-51.856c-31.649,67.818-49.416,202.762,134.547,153.609c124.291-33.209,184.905,33.045,196.898,98.748"/>
			
				<radialGradient id="SVGID_00000063619813983505602790000003334399750946103942_" cx="526.1079" cy="87.4314" r="153.8758" gradientUnits="userSpaceOnUse">
				<stop  offset="0" style="stop-color:#00FFFF;stop-opacity:0.3"/>
				<stop  offset="0.5132" style="stop-color:#00FFFF"/>
				<stop  offset="1" style="stop-color:#00FFFF;stop-opacity:0.1"/>
			</radialGradient>
			<path style="fill:none;stroke:url(#SVGID_00000063619813983505602790000003334399750946103942_);stroke-miterlimit:10;" d="
				M389.885-51.517c-37.216,58.58-75.43,194.751,113.843,155.025c125.444-26.329,181.536,48.771,189.137,123.089"/>
			
				<radialGradient id="SVGID_00000124125952668243155010000005101720554151969942_" cx="527.7198" cy="100.6033" r="155.7086" gradientUnits="userSpaceOnUse">
				<stop  offset="0" style="stop-color:#00FFFF;stop-opacity:0.3"/>
				<stop  offset="0.5132" style="stop-color:#00FFFF"/>
				<stop  offset="1" style="stop-color:#00FFFF;stop-opacity:0.1"/>
			</radialGradient>
			<path style="fill:none;stroke:url(#SVGID_00000124125952668243155010000005101720554151969942_);stroke-miterlimit:10;" d="
				M411.931-51.178c-42.782,49.342-101.48,186.544,93.139,156.442c126.573-19.577,178.167,64.497,181.376,147.429"/>
			
				<radialGradient id="SVGID_00000019637970763909792600000004089946389538636987_" cx="528.5536" cy="113.7858" r="158.6366" gradientUnits="userSpaceOnUse">
				<stop  offset="0" style="stop-color:#00FFFF;stop-opacity:0.3"/>
				<stop  offset="0.5132" style="stop-color:#00FFFF"/>
				<stop  offset="1" style="stop-color:#00FFFF;stop-opacity:0.1"/>
			</radialGradient>
			<path style="fill:none;stroke:url(#SVGID_00000019637970763909792600000004089946389538636987_);stroke-miterlimit:10;" d="
				M433.977-50.839c-48.349,40.104-127.538,178.138,72.436,157.858c127.699-12.95,174.798,80.224,173.616,171.77"/>
			
				<radialGradient id="SVGID_00000036252294161829938460000014962286569899961730_" cx="528.9847" cy="126.9893" r="162.5679" gradientUnits="userSpaceOnUse">
				<stop  offset="0" style="stop-color:#00FFFF;stop-opacity:0.3"/>
				<stop  offset="0.5132" style="stop-color:#00FFFF"/>
				<stop  offset="1" style="stop-color:#00FFFF;stop-opacity:0.1"/>
			</radialGradient>
			<path style="fill:none;stroke:url(#SVGID_00000036252294161829938460000014962286569899961730_);stroke-miterlimit:10;" d="
				M456.023-50.5c-53.916,30.866-153.573,169.535,51.732,159.274c128.841-6.439,171.429,95.95,165.855,196.11"/>
			
				<radialGradient id="SVGID_00000159445426769475253400000001545552732177520780_" cx="529.2211" cy="140.1977" r="167.3451" gradientUnits="userSpaceOnUse">
				<stop  offset="0" style="stop-color:#00FFFF;stop-opacity:0.3"/>
				<stop  offset="0.5132" style="stop-color:#00FFFF"/>
				<stop  offset="1" style="stop-color:#00FFFF;stop-opacity:0.1"/>
			</radialGradient>
			<path style="fill:none;stroke:url(#SVGID_00000159445426769475253400000001545552732177520780_);stroke-miterlimit:10;" d="
				M478.069-50.161c-59.482,21.628-179.551,162.397,31.029,160.69c130.013-1.054,168.06,111.676,158.094,220.451"/>
			
				<radialGradient id="SVGID_00000108299668725402816890000005088202327011992758_" cx="529.3509" cy="153.412" r="172.8148" gradientUnits="userSpaceOnUse">
				<stop  offset="0" style="stop-color:#00FFFF;stop-opacity:0.3"/>
				<stop  offset="0.5132" style="stop-color:#00FFFF"/>
				<stop  offset="1" style="stop-color:#00FFFF;stop-opacity:0.1"/>
			</radialGradient>
			<path style="fill:none;stroke:url(#SVGID_00000108299668725402816890000005088202327011992758_);stroke-miterlimit:10;" d="
				M500.115-49.822c-65.049,12.39-205.472,151.781,10.325,162.106c131.24,6.279,164.69,127.403,150.334,244.791"/>
		</g>
		
			<linearGradient id="SVGID_00000076583400352975160190000002295975174733202081_" gradientUnits="userSpaceOnUse" x1="364.7029" y1="222.1405" x2="654.3579" y2="-7.1699">
			<stop  offset="0" style="stop-color:#FF4FF4"/>
			<stop  offset="1" style="stop-color:#6B0EF4;stop-opacity:0"/>
		</linearGradient>
		
			<path style="clip-path:url(#SVGID_00000176040305909832760490000003544340055577916589_);fill:url(#SVGID_00000076583400352975160190000002295975174733202081_);" d="
			M360.732,101.777c-32.848,22.556-42.055,61.465-12.498,80.591c22.699,14.688,63.905-0.339,87.055,3.448
			c23.821,3.896,27.454,20.104,29.969,34.355c10.183,57.702,45.309,52.081,67.55,15.799c22.241-36.282,64.199-53.817,92.192-4.509V0
			H373.231C407.304,17.207,412.615,66.151,360.732,101.777z"/>
		
			<linearGradient id="SVGID_00000152970373146288847880000015485566808997467548_" gradientUnits="userSpaceOnUse" x1="65.6004" y1="84.8536" x2="-8.3856" y2="-24.0114">
			<stop  offset="0" style="stop-color:#00CAFF"/>
			<stop  offset="1" style="stop-color:#B980FF;stop-opacity:0"/>
		</linearGradient>
		
			<path style="clip-path:url(#SVGID_00000176040305909832760490000003544340055577916589_);fill:url(#SVGID_00000152970373146288847880000015485566808997467548_);" d="
			M53.215,153.349c21.433-91.448,90.01-111.789,138.601-85.733C241.112,94.05,294.695,41.896,251.58,0H-82.128v228.365
			C-6.798,249.084,41.62,202.819,53.215,153.349z"/>
		
			<linearGradient id="SVGID_00000096045011594970990830000013863014482243503271_" gradientUnits="userSpaceOnUse" x1="293.8499" y1="309.4614" x2="357.2289" y2="489.9305">
			<stop  offset="0" style="stop-color:#00CAFF"/>
			<stop  offset="1" style="stop-color:#B980FF"/>
		</linearGradient>
		
			<path style="clip-path:url(#SVGID_00000176040305909832760490000003544340055577916589_);fill:url(#SVGID_00000096045011594970990830000013863014482243503271_);" d="
			M625,462.532c-43.922,26.941-86.633,6.386-70.227-57.095c4.797-18.561,0.37-36.851-16.317-42.714
			c-22.695-7.974-36.024,6.427-55.473-0.902c-31.119-11.726-7.759-118.267-69.819-141.603c-31.967-12.02-67.171,5.626-86.381,33.16
			c-19.21,27.534-26.347,68.186-37.581,115.265c-12.276,51.447-50.416,82.385-121.417,50.594
			C110.658,393.657,64.614,437.996,83.372,500H625V462.532z"/>
		
			<linearGradient id="SVGID_00000134940925126351730800000008208114181032524727_" gradientUnits="userSpaceOnUse" x1="75.8452" y1="240.6405" x2="-143.0423" y2="495.18">
			<stop  offset="0" style="stop-color:#FF4FF4"/>
			<stop  offset="1" style="stop-color:#6B0EF4;stop-opacity:0"/>
		</linearGradient>
		
			<path style="clip-path:url(#SVGID_00000176040305909832760490000003544340055577916589_);fill:url(#SVGID_00000134940925126351730800000008208114181032524727_);" d="
			M-12.012,392.051c-0.989-9.137,2.967-18.969,14.635-26.779c7.934-5.31,25.82-8.163,51.859-15.067
			c61.143-16.21,84.747-63.419,62.891-105.1c-30.303-57.79-109.723-22.767-140.875-2.236C-61.562,267.952-99.55,269.781-125,249.893
			V500H45.317c10.843-10.137,14.773-22.611,12.021-34.861C49.144,428.672-8.366,425.743-12.012,392.051z"/>
		
			<linearGradient id="SVGID_00000048498757448280953080000004445245847422545060_" gradientUnits="userSpaceOnUse" x1="397.1838" y1="129.6375" x2="535.7564" y2="0.7123">
			<stop  offset="0" style="stop-color:#F4F110"/>
			<stop  offset="1" style="stop-color:#FF009A;stop-opacity:0"/>
		</linearGradient>
		
			<path style="clip-path:url(#SVGID_00000176040305909832760490000003544340055577916589_);fill:url(#SVGID_00000048498757448280953080000004445245847422545060_);" d="
			M404.934,0c-0.758,24.126,22.573,5.881,41.922,30.759c18.168,23.358,4.459,55.32-3.391,79.453
			c-17.217,52.925,47.187,82.896,87.359,8.927c12.119-22.315,30.353-31.824,47.24-35.411V0H404.934z"/>
		<g style="clip-path:url(#SVGID_00000176040305909832760490000003544340055577916589_);">
			<g>
				<rect x="374.396" y="409.037" style="fill:#FFFFFF;" width="2.363" height="13.137"/>
				
					<rect x="374.523" y="409.037" transform="matrix(-1.836970e-16 1 -1 -1.836970e-16 791.1826 40.0274)" style="fill:#FFFFFF;" width="2.108" height="13.137"/>
			</g>
			<g>
				<rect x="277.385" y="15.378" style="fill:#FFFFFF;" width="1.521" height="8.457"/>
				
					<rect x="277.467" y="15.378" transform="matrix(-1.836970e-16 1 -1 -1.836970e-16 297.7528 -258.5389)" style="fill:#FFFFFF;" width="1.357" height="8.457"/>
			</g>
			<g>
				<rect x="44.189" y="194.439" style="fill:#FFFFFF;" width="1.811" height="10.068"/>
				
					<rect x="44.287" y="194.439" transform="matrix(-1.836970e-16 1 -1 -1.836970e-16 244.5688 154.3784)" style="fill:#FFFFFF;" width="1.616" height="10.068"/>
			</g>
		</g>
		
			<linearGradient id="SVGID_00000029765561175411798680000004102460304652575389_" gradientUnits="userSpaceOnUse" x1="272.5022" y1="285.8325" x2="278.4304" y2="302.7127">
			<stop  offset="0" style="stop-color:#00CAFF"/>
			<stop  offset="1" style="stop-color:#B980FF;stop-opacity:0"/>
		</linearGradient>
		
			<circle style="clip-path:url(#SVGID_00000176040305909832760490000003544340055577916589_);fill:url(#SVGID_00000029765561175411798680000004102460304652575389_);" cx="276.073" cy="296.001" r="16.296"/>
		
			<linearGradient id="SVGID_00000126281224097062461920000013673226931482190732_" gradientUnits="userSpaceOnUse" x1="145.278" y1="74.3231" x2="148.7811" y2="84.2978">
			<stop  offset="0" style="stop-color:#00CAFF"/>
			<stop  offset="1" style="stop-color:#B980FF;stop-opacity:0"/>
		</linearGradient>
		
			<circle style="clip-path:url(#SVGID_00000176040305909832760490000003544340055577916589_);fill:url(#SVGID_00000126281224097062461920000013673226931482190732_);" cx="147.388" cy="80.332" r="9.63"/>
		
			<linearGradient id="SVGID_00000132068083004320997050000000855932466698864317_" gradientUnits="userSpaceOnUse" x1="105.9135" y1="170.3232" x2="87.1105" y2="213.6197">
			<stop  offset="0" style="stop-color:#FF4FF4"/>
			<stop  offset="1" style="stop-color:#6B0EF4;stop-opacity:0"/>
		</linearGradient>
		
			<path style="clip-path:url(#SVGID_00000176040305909832760490000003544340055577916589_);fill:url(#SVGID_00000132068083004320997050000000855932466698864317_);" d="
			M133.283,196.668c-1.928,11.32-19.671,17.74-39.629,14.339c-19.958-3.4-34.574-15.333-32.646-26.652
			c1.928-11.319,19.671-17.74,39.629-14.339C120.596,173.416,135.212,185.348,133.283,196.668z"/>
		
			<linearGradient id="SVGID_00000026140706809079707000000010672212923362404740_" gradientUnits="userSpaceOnUse" x1="308.656" y1="129.0407" x2="321.5888" y2="118.8022">
			<stop  offset="0" style="stop-color:#FF4FF4"/>
			<stop  offset="1" style="stop-color:#6B0EF4;stop-opacity:0"/>
		</linearGradient>
		
			<circle style="clip-path:url(#SVGID_00000176040305909832760490000003544340055577916589_);fill:url(#SVGID_00000026140706809079707000000010672212923362404740_);" cx="314.807" cy="124.171" r="7.423"/>
	</g>
</g>
<g id="DESIGNED_BY_FREEPIK">
	<g>
		<g id="XMLID_1_">
			<g id="XMLID_20_">
				<path id="XMLID_28_" style="fill:#FFFFFF;" d="M259.145,473.398c-0.391,0.401-0.727,0.842-1.003,1.315l-0.421-0.218
					c-0.061-0.269-0.316-0.455-0.596-0.422c-0.3,0.035-0.514,0.307-0.479,0.606c0.035,0.299,0.307,0.514,0.606,0.478
					c0.059-0.007,0.115-0.023,0.166-0.047l0.409,0.212c-0.227,0.501-0.392,1.03-0.488,1.578l0.676,0.119
					c0.208-1.182,0.769-2.269,1.622-3.143L259.145,473.398z"/>
				<path id="XMLID_27_" style="fill:#FFFFFF;" d="M264.111,471.315c-0.155,0-0.308,0.006-0.461,0.015l-0.067-0.567
					c0.17-0.135,0.268-0.352,0.241-0.583c-0.042-0.356-0.364-0.61-0.72-0.568c-0.356,0.042-0.61,0.364-0.568,0.72
					c0.027,0.23,0.171,0.418,0.366,0.51l0.066,0.565c-0.646,0.105-1.27,0.3-1.864,0.585l0.296,0.619
					c0.845-0.404,1.757-0.609,2.711-0.609c0.449,0,0.899,0.048,1.335,0.143l0.145-0.671
					C265.107,471.368,264.609,471.315,264.111,471.315z"/>
				<path id="XMLID_26_" style="fill:#FFFFFF;" d="M270.086,473.62c0.299-0.037,0.512-0.309,0.476-0.609
					c-0.037-0.299-0.309-0.512-0.608-0.476c-0.28,0.034-0.484,0.275-0.48,0.551l-0.376,0.329c-0.378-0.389-0.805-0.735-1.274-1.031
					l-0.366,0.58c1.026,0.647,1.829,1.562,2.32,2.647l0.625-0.283c-0.227-0.501-0.514-0.97-0.853-1.398l0.364-0.318
					C269.969,473.625,270.027,473.627,270.086,473.62z"/>
				<path id="XMLID_25_" style="fill:#FFFFFF;" d="M263.615,480.554c-0.349,0.021-0.701,0.031-1.047,0.031
					c-0.797,0-1.568-0.055-2.243-0.162c-0.353-0.056-0.766-0.14-1.15-0.264c0.947,1.684,2.778,2.828,4.877,2.828
					c2.584,0,4.763-1.734,5.385-4.076c-0.617,0.407-1.362,0.747-2.225,1.016C266.145,480.26,264.9,480.477,263.615,480.554z"/>
				<path id="XMLID_21_" style="fill:#FFFFFF;" d="M264.111,472.687c-3.034,0-5.502,2.413-5.502,5.379
					c0,0.385,0.042,0.768,0.124,1.142c0.609,0.437,2.449,0.805,4.84,0.661c2.606-0.157,4.794-0.866,6.039-1.954
					c-0.005-0.176-0.019-0.353-0.041-0.526C269.226,474.708,266.879,472.687,264.111,472.687z M262.157,478.583
					c-0.923,0-1.674-0.751-1.674-1.674c0-0.923,0.751-1.674,1.674-1.674c0.923,0,1.674,0.751,1.674,1.674
					C263.831,477.832,263.08,478.583,262.157,478.583z M266.444,477.761c-0.679,0-1.231-0.552-1.231-1.231
					c0-0.679,0.552-1.231,1.231-1.231c0.679,0,1.231,0.552,1.231,1.231C267.676,477.209,267.123,477.761,266.444,477.761z"/>
			</g>
			<path id="XMLID_18_" style="fill:#FFFFFF;" d="M278.595,474.377c-0.267-0.105-0.729-0.28-1.251-0.215
				c-0.499,0.062-0.764,0.308-0.764,0.911v0.784h2.016v1.554h-2.016v4.937h-1.748v-4.937h-1.212v-1.554h1.212v-0.804
				c0-1.52,0.81-2.518,2.324-2.518c0.582,0,1.047,0.11,1.439,0.279L278.595,474.377z"/>
			<path id="XMLID_16_" style="fill:#FFFFFF;" d="M282.851,477.392c-0.16-0.027-0.324-0.042-0.476-0.042
				c-0.811,0-1.367,0.496-1.367,1.46v3.537h-1.748v-6.491h1.695v0.71c0.409-0.609,1.032-0.884,1.829-0.884
				c0.375,0,0.767,0.115,0.99,0.305L282.851,477.392z"/>
			<path id="XMLID_13_" style="fill:#FFFFFF;" d="M289.79,479.092c0,0.201-0.013,0.442-0.034,0.59h-4.602
				c0.188,0.938,0.844,1.346,1.668,1.346c0.563,0,1.172-0.228,1.641-0.623l1.025,1.125c-0.737,0.677-1.675,0.985-2.767,0.985
				c-1.99,0-3.369-1.353-3.369-3.396c0-2.043,1.34-3.436,3.282-3.436C288.504,475.683,289.783,477.069,289.79,479.092z
				 M285.161,478.489h2.874c-0.161-0.831-0.663-1.299-1.413-1.299C285.798,477.19,285.315,477.686,285.161,478.489z"/>
			<path id="XMLID_10_" style="fill:#FFFFFF;" d="M296.716,479.092c0,0.201-0.014,0.442-0.034,0.59h-4.602
				c0.188,0.938,0.844,1.346,1.668,1.346c0.563,0,1.172-0.228,1.641-0.623l1.025,1.125c-0.737,0.677-1.675,0.985-2.767,0.985
				c-1.989,0-3.369-1.353-3.369-3.396c0-2.043,1.34-3.436,3.282-3.436C295.43,475.683,296.71,477.069,296.716,479.092z
				 M292.088,478.489h2.874c-0.161-0.831-0.663-1.299-1.413-1.299C292.724,477.19,292.242,477.686,292.088,478.489z"/>
			<path id="XMLID_7_" style="fill:#FFFFFF;" d="M304.27,479.099c0,1.949-1.353,3.416-3.142,3.416c-0.871,0-1.487-0.342-1.909-0.844
				v3.356h-1.742v-9.17h1.708v0.717c0.422-0.529,1.045-0.891,1.936-0.891C302.916,475.683,304.27,477.15,304.27,479.099z
				 M299.132,479.099c0,1.025,0.676,1.788,1.668,1.788c1.032,0,1.675-0.797,1.675-1.788c0-0.991-0.643-1.789-1.675-1.789
				C299.808,477.31,299.132,478.074,299.132,479.099z"/>
			<path id="XMLID_4_" style="fill:#FFFFFF;" d="M307.078,473.733c0,0.63-0.489,1.112-1.119,1.112c-0.63,0-1.112-0.482-1.112-1.112
				c0-0.63,0.482-1.125,1.112-1.125C306.589,472.608,307.078,473.104,307.078,473.733z M306.844,482.348h-1.748v-6.491h1.748
				V482.348z"/>
			<path id="XMLID_2_" style="fill:#FFFFFF;" d="M309.761,478.168l2.445-2.311h2.143l-3.148,3.054l3.168,3.436h-2.15l-2.458-2.626
				v2.626h-1.748v-9.646h1.748V478.168z"/>
		</g>
		<g>
			<path style="fill:#FFFFFF;" d="M190.641,482.289v-0.954c-0.477,0.65-1.259,1.114-2.161,1.114c-1.671,0-2.85-1.273-2.85-3.354
				c0-2.042,1.167-3.367,2.85-3.367c0.862,0,1.644,0.424,2.161,1.127v-3.407h0.995v8.842H190.641z M190.641,480.552v-2.903
				c-0.358-0.557-1.127-1.034-1.922-1.034c-1.286,0-2.055,1.061-2.055,2.479c0,1.418,0.769,2.466,2.055,2.466
				C189.514,481.56,190.283,481.109,190.641,480.552z"/>
			<path style="fill:#FFFFFF;" d="M192.921,479.081c0-1.856,1.326-3.354,3.155-3.354c1.936,0,3.076,1.511,3.076,3.433v0.252h-5.183
				c0.08,1.206,0.928,2.214,2.307,2.214c0.729,0,1.471-0.292,1.975-0.809l0.477,0.65c-0.636,0.636-1.498,0.981-2.545,0.981
				C194.286,482.448,192.921,481.083,192.921,479.081z M196.063,476.549c-1.366,0-2.042,1.153-2.095,2.134h4.203
				C198.157,477.728,197.521,476.549,196.063,476.549z"/>
			<path style="fill:#FFFFFF;" d="M199.867,481.44l0.517-0.716c0.424,0.491,1.233,0.915,2.108,0.915
				c0.981,0,1.511-0.464,1.511-1.101c0-1.551-3.964-0.596-3.964-2.97c0-0.994,0.862-1.843,2.386-1.843
				c1.087,0,1.856,0.411,2.373,0.928l-0.464,0.689c-0.384-0.464-1.087-0.809-1.909-0.809c-0.875,0-1.418,0.438-1.418,1.008
				c0,1.405,3.964,0.477,3.964,2.97c0,1.074-0.861,1.935-2.519,1.935C201.405,482.448,200.517,482.13,199.867,481.44z"/>
			<path style="fill:#FFFFFF;" d="M206.085,474.308c0-0.371,0.305-0.676,0.663-0.676c0.371,0,0.676,0.305,0.676,0.676
				c0,0.371-0.305,0.663-0.676,0.663C206.39,474.971,206.085,474.68,206.085,474.308z M206.257,482.289v-6.403h0.994v6.403H206.257z
				"/>
			<path style="fill:#FFFFFF;" d="M208.895,483.933l0.504-0.742c0.53,0.636,1.167,0.875,2.081,0.875
				c1.061,0,2.055-0.517,2.055-1.922v-0.915c-0.464,0.65-1.246,1.14-2.148,1.14c-1.67,0-2.85-1.246-2.85-3.314
				c0-2.055,1.167-3.327,2.85-3.327c0.862,0,1.631,0.424,2.148,1.127v-0.968h0.994v6.217c0,2.121-1.485,2.784-3.049,2.784
				C210.393,484.887,209.65,484.675,208.895,483.933z M213.535,480.446v-2.797c-0.345-0.557-1.114-1.034-1.909-1.034
				c-1.286,0-2.055,1.021-2.055,2.439c0,1.405,0.769,2.439,2.055,2.439C212.421,481.493,213.19,481.003,213.535,480.446z"/>
			<path style="fill:#FFFFFF;" d="M220.508,482.289V478.1c0-1.126-0.57-1.485-1.432-1.485c-0.782,0-1.525,0.477-1.896,0.995v4.679
				h-0.994v-6.403h0.994v0.928c0.451-0.53,1.326-1.087,2.28-1.087c1.339,0,2.042,0.676,2.042,2.068v4.494H220.508z"/>
			<path style="fill:#FFFFFF;" d="M222.788,479.081c0-1.856,1.326-3.354,3.155-3.354c1.935,0,3.076,1.511,3.076,3.433v0.252h-5.184
				c0.079,1.206,0.928,2.214,2.307,2.214c0.729,0,1.471-0.292,1.975-0.809l0.477,0.65c-0.636,0.636-1.498,0.981-2.545,0.981
				C224.153,482.448,222.788,481.083,222.788,479.081z M225.93,476.549c-1.365,0-2.042,1.153-2.094,2.134h4.202
				C228.024,477.728,227.388,476.549,225.93,476.549z"/>
			<path style="fill:#FFFFFF;" d="M234.931,482.289v-0.954c-0.477,0.65-1.259,1.114-2.161,1.114c-1.67,0-2.85-1.273-2.85-3.354
				c0-2.042,1.167-3.367,2.85-3.367c0.862,0,1.644,0.424,2.161,1.127v-3.407h0.994v8.842H234.931z M234.931,480.552v-2.903
				c-0.358-0.557-1.127-1.034-1.922-1.034c-1.286,0-2.055,1.061-2.055,2.479c0,1.418,0.769,2.466,2.055,2.466
				C233.804,481.56,234.573,481.109,234.931,480.552z"/>
			<path style="fill:#FFFFFF;" d="M240.671,482.289v-8.842h0.994v3.407c0.517-0.703,1.286-1.127,2.161-1.127
				c1.67,0,2.85,1.326,2.85,3.367c0,2.081-1.18,3.354-2.85,3.354c-0.901,0-1.684-0.464-2.161-1.114v0.954H240.671z M243.574,481.56
				c1.299,0,2.068-1.047,2.068-2.466c0-1.419-0.769-2.479-2.068-2.479c-0.782,0-1.564,0.477-1.909,1.034v2.903
				C242.01,481.109,242.792,481.56,243.574,481.56z"/>
			<path style="fill:#FFFFFF;" d="M247.763,483.893c0.146,0.066,0.385,0.106,0.544,0.106c0.437,0,0.729-0.146,0.954-0.676
				l0.424-0.968l-2.678-6.469h1.074l2.134,5.25l2.121-5.25h1.087l-3.208,7.702c-0.384,0.928-1.034,1.286-1.883,1.299
				c-0.212,0-0.543-0.04-0.729-0.093L247.763,483.893z"/>
		</g>
	</g>
</g>
</svg>
