<?xml version="1.0" encoding="utf-8"?>
<!-- Generator: Adobe Illustrator 27.5.0, SVG Export Plug-In . SVG Version: 6.00 Build 0)  -->
<svg version="1.1" id="Layer_1" xmlns="http://www.w3.org/2000/svg" xmlns:xlink="http://www.w3.org/1999/xlink" x="0px" y="0px"
	 viewBox="0 0 4000 4000" style="enable-background:new 0 0 4000 4000;" xml:space="preserve">
<g>
	<g>
		<rect style="fill:#7DD3FF;" width="4000" height="4000"/>
	</g>
	<g style="opacity:0.2;">
		<ellipse style="fill:#512717;" cx="1934.31" cy="3412.471" rx="933.723" ry="141.341"/>
	</g>
	<g>
		<g>
			<g>
				<g>
					<g>
						<path style="fill:#FFFFFF;" d="M2177.19,2859.295c89.2,123.272,292.056,199.364,443.068,39.068
							c47.192-50.1,63.656-106.692,61.192-165.716c-6.824-165.708-162.304-350.812-204.032-467.148
							c-16.008-44.484-15.308-78.928,16.668-98.328c84.304-51.152,86.928,101.012,191.492,99.868
							c43.692-0.516,148.02-65.88,73.344-207.396c-94.248-178.736-328.228-188.808-446.924-46.308
							c-66.196,79.452-61.788,166.908-27.944,255.076c82.372,214.8,339.22,433.812,174.364,551.54
							c-42.984,30.66-90.864,22.728-138.028-5.46c-130.148-77.764-254.664-309.724-254.664-309.724
							S2087.938,2736.087,2177.19,2859.295"/>
					</g>
					<g>
						<path style="fill:#D3DDEA;" d="M2177.19,2859.295c89.2,123.272,292.056,199.364,443.068,39.068
							c47.192-50.1,63.656-106.692,61.192-165.716c-47.072,134.644-202.18,267.936-361.06,81.844
							c-130.148-77.764-254.664-309.724-254.664-309.724S2087.938,2736.087,2177.19,2859.295"/>
					</g>
					<g>
						<path style="fill:#F6A42B;" d="M2284.053,2268.412c78.072,40.232,157.352,13.068,186.72,0.14
							c2.628-1.164,4.844-2.184,6.644-3.056c-16.008-44.484-15.304-78.924,16.668-98.328
							c84.304-51.152,86.928,101.012,191.492,99.868c38.184-0.444,122.644-50.388,93.548-157.408
							c-4.212-15.476-10.764-32.124-20.204-49.984c-94.248-178.736-328.228-188.812-446.924-46.312
							C2245.801,2092.788,2250.209,2180.244,2284.053,2268.412"/>
					</g>
					<g>
						<path style="fill:#EF7E21;" d="M2470.772,2268.552c2.628-1.164,4.844-2.184,6.644-3.056
							c-16.008-44.484-15.304-78.924,16.668-98.328c84.304-51.152,86.932,101.012,191.492,99.868
							c38.184-0.444,122.644-50.392,93.548-157.408c-12.384,33.7-40.852,81.872-103.14,85.264
							c-81.756,4.468-95.764-61.596-138.584-103.388C2483.44,2038.873,2354.588,2150.708,2470.772,2268.552"/>
					</g>
					<g>
						<path style="fill:#000072;" d="M2422.647,3009.367c-6.072,0-12.175-0.198-18.313-0.593
							c-92.959-6.003-186.211-58.777-243.367-137.725c-91.357-126.206-114.212-354.697-115.139-364.363
							c-0.911-9.48,4.99-18.286,14.107-21.05c9.114-2.766,18.914,1.287,23.42,9.675c1.555,2.896,157.1,289.878,293.289,321.609
							c26.174,6.096,49.126,1.765,70.151-13.242c91.145-65.073,34.915-162.947-64.38-317.246
							c-100.225-155.74-213.821-332.261-85.793-485.92c62.717-75.271,158.459-114.087,256.057-103.835
							c96.157,10.103,177.778,66.091,223.936,153.613c43.552,82.585,29.243,139.294,9.57,172.327
							c-24.912,41.829-69.37,64.065-100.413,64.412c-60.337,0.747-91.409-40.012-116.499-72.703
							c-29.453-38.372-38.967-45.75-64.844-30.046c-41.455,25.146-3.293,97.825,64.48,214.534
							c45.361,78.115,96.775,166.653,120.071,254.585c27.991,105.659,10.278,190.264-54.15,258.65
							C2574.615,2975.964,2501.588,3009.367,2422.647,3009.367z M2101.495,2603.078c15.298,75.693,43.45,177.62,91.875,244.514
							c50.344,69.543,132.17,116.011,213.542,121.265c73.655,4.739,142.402-24.37,198.801-84.236
							c123.147-130.713,15.278-316.465-71.394-465.72c-32.593-56.125-63.376-109.136-77.905-152.81
							c-18.271-54.919-9.097-93.953,27.268-116.011c59.163-35.891,92.773,7.91,117.319,39.89
							c22.522,29.338,43.809,57.068,83.364,57.068c0.32,0,0.637-0.002,0.957-0.005c16.145-0.181,48.442-14.57,66.497-44.885
							c20.701-34.756,17.039-80.815-10.586-133.201c-39.827-75.515-110.076-123.806-192.732-132.488
							c-84.321-8.862-166.99,24.661-221.147,89.658c-109.231,131.099-8.611,287.458,88.699,438.669
							c45.754,71.104,88.975,138.264,107.288,199.729c22.095,74.165,4.661,130.334-53.303,171.716
							c-30.505,21.775-64.985,28.389-102.493,19.641C2266.048,2832.209,2162.24,2696.288,2101.495,2603.078z"/>
					</g>
					<g style="opacity:0.7;">
						<g>
							<g>
								<path style="fill:#FFFFFF;" d="M2525.198,1958.541c-34.932-7.868-119.504,1.572-169.264,73.636
									c-36.972,53.532-15.188,69.304,2.62,59.32c32.272-18.096,39.072-68.152,147.356-95.704
									C2562.781,1981.317,2547.158,1963.481,2525.198,1958.541"/>
							</g>
						</g>
					</g>
					<g style="opacity:0.7;">
						<g>
							<g>
								<path style="fill:#FFFFFF;" d="M2622.604,1974.048c-7.172-7.26-18.76-15.316-39.488-11.16
									c-20.732,4.16-24.892,21.912-16.672,29.544c8.216,7.632,37.272,23.032,52.136,14.276
									C2635.04,1997.013,2629.78,1981.308,2622.604,1974.048"/>
							</g>
						</g>
					</g>
					<g>
						<path style="fill:#FFFFFF;" d="M1673.854,2147.47c-37.144,47.596-97.172,89.392-97.172,89.392s-0.412,1.304-1.264,3.72
							c-11.8,33.46-106.776,281.136-329.736,260.7c-134.54-12.316-217.98-109.34-263.236-185.112
							c-30.256-50.688-43.468-91.812-43.468-91.812s12.284-38.372,44.44-79.16c21.66-27.54,52.436-56.196,94.604-74.916
							c23.852-10.604,43.652-13.66,59.952-12.132c55.268,5.284,70.9,63.716,70.9,63.716c42.388,29.288,107.74,57.196,107.74,57.196
							s74.36-56.864,158.392-100.78c72.348-37.812,151.88-66.02,197.324-40.156
							C1719.518,2064.999,1704.482,2108.207,1673.854,2147.47"/>
					</g>
					<g>
						<path style="fill:#FFFFFF;" d="M1673.864,2147.482c-1.88,2.416-3.848,4.836-5.864,7.252
							c-81.268-14.864-149.728-41.328-195.668-75c0.896-0.492,1.792-0.94,2.688-1.432c72.356-37.832,151.876-66.044,197.324-40.16
							C1719.536,2065.006,1704.491,2108.214,1673.864,2147.482"/>
					</g>
					<g>
						<path style="fill:#D3DDEA;" d="M1673.864,2147.482c-1.88,2.416-3.848,4.836-5.864,7.252
							c-81.268-14.864-149.728-41.328-195.668-75c0.896-0.492,1.792-0.94,2.688-1.432c72.356-37.832,151.876-66.044,197.324-40.16
							C1719.536,2065.006,1704.491,2108.214,1673.864,2147.482"/>
					</g>
					<g>
						<path style="fill:#D3DDEA;" d="M2138.049,2098.72c-38.284,21.584-86.82,39.18-142.208,51.224l-33.852-129.4
							C2022.481,2033.841,2082.797,2061.873,2138.049,2098.72"/>
					</g>
					<g>
						<path style="fill:#D3DDEA;" d="M2110.467,2112.779c-74.24,34.164-176.952,55.344-290.456,55.344
							c-126.492,0-239.548-26.284-314.768-67.568c2.148-3.712,4.12-7.116,6-10.164l305.276-85.296l289.872,100.296
							C2106.391,2105.391,2107.823,2107.943,2110.467,2112.779"/>
					</g>
					<g>
						<path style="fill:#626272;" d="M2113.788,2083.346c-33.72,20.28-75.248,37.252-122.368,49.72l-29.436-112.504
							C2013.752,2031.914,2065.372,2054.094,2113.788,2083.346"/>
					</g>
					<g>
						<path style="fill:#D3DDEA;" d="M1070.225,2246.369c-81.668,32.352-113.492-22.868-113.492-22.868l26.684-78.304
							c21.66-27.54,52.436-56.196,94.604-74.912c23.856-10.608,43.652-13.664,59.952-12.136c8.824,6.736,15.336,14.924,17.94,24.972
							C1167.749,2128.489,1138.201,2219.441,1070.225,2246.369"/>
					</g>
					<g>
						<path style="fill:#D3DDEA;" d="M1575.416,2240.584c-11.796,33.456-106.772,281.132-329.736,260.7
							c-134.536-12.316-217.976-109.34-263.232-185.116c89.32,4.876,151.136-30.924,151.136-30.924s-2.752,93.448,45.332,130.892
							c137.696,107.292,173.724-90.624,290.284-212.62C1517.508,2152.94,1551.596,2182.452,1575.416,2240.584"/>
					</g>
					<g>
						<path style="fill:#000072;" d="M1271.138,2522.472c-9.009,0.002-18.096-0.417-27.273-1.257
							c-234.929-21.509-320.405-279.758-323.928-290.74c-3.374-10.518,2.414-21.78,12.932-25.154
							c10.527-3.372,21.78,2.417,25.154,12.932c0.784,2.422,81.143,244.053,289.49,263.127
							c220.005,20.137,309.275-247.957,310.146-250.667c1.343-4.158,4.021-7.781,7.605-10.281
							c46.287-32.273,119.041-98.406,117.209-138.477c-0.303-6.626-2.707-16.577-20.036-26.443
							c-63.142-35.947-238.176,66.438-333.674,139.424c-5.728,4.38-13.372,5.334-20.003,2.502
							c-2.744-1.172-67.7-29.048-111.238-59.128c-9.089-6.279-11.367-18.735-5.088-27.822c6.279-9.089,18.738-11.367,27.822-5.088
							c30.4,21.001,73.953,41.638,93.733,50.603c53.284-39.497,269.456-191.489,368.237-135.251
							c31.826,18.12,39.431,42.305,40.208,59.402c3.125,68.982-101.196,149.207-128.926,169.272
							c-7.078,19.688-31.104,80.52-76.807,140.034C1449.571,2476.886,1365.128,2522.47,1271.138,2522.472z"/>
					</g>
					<g>
						<path style="fill:#777781;" d="M1138.2,2050.334l-126.76,117.232l-1.004,0.932c0,0-0.26-0.112-0.78-0.376
							c-7.484-3.496-67.4-32.116-112.396-69.888c-8.148-6.888-15.852-14.032-22.628-21.4
							c-34.536-37.516-36.248-96.316,1.528-116.152c36.396-19.128,81.392,6.808,109.488,28.432
							c16.3,12.504,26.908,23.556,26.908,23.556s-2.568-7.072-5.804-18.308c-5.656-19.612-13.248-51.88-12.58-81.132
							c1.528-64.2,71.68-81.168,102.644-34.98c13.88,20.688,23.296,52.956,29.624,83.996
							C1135.667,2007.61,1138.2,2050.334,1138.2,2050.334"/>
					</g>
					<g>
						<path style="fill:#FFFFFF;" d="M1138.2,2050.334l-126.76,117.232l-1.004,0.932c0,0-0.26-0.112-0.78-0.376
							c-7.484-3.496-67.4-32.116-112.396-69.888c-5.804-4.916-11.388-9.94-16.56-15.112c0,0,0-0.036-0.036-0.072
							c-2.084-2.012-4.096-4.096-6.032-6.216c-34.536-37.516-36.248-96.316,1.528-116.152c29.848-15.708,65.5-1.044,92.856,16.632
							c5.992,3.872,11.572,7.892,16.632,11.8c16.3,12.504,26.908,23.556,26.908,23.556s-2.568-7.072-5.804-18.308
							c-4.056-14.108-9.12-34.688-11.428-56.048v-0.04c-0.892-8.368-1.34-16.82-1.152-25.044c1.528-64.2,71.68-81.168,102.644-34.98
							c6.324,9.448,11.76,21.356,16.376,34.42c5.468,15.52,9.824,32.716,13.248,49.576
							C1135.667,2007.61,1138.2,2050.334,1138.2,2050.334"/>
					</g>
					<g>
						<path style="fill:#D3DDEA;" d="M1138.2,2050.334l-126.76,117.232l-1.784,0.556c-7.484-3.496-67.4-32.116-112.396-69.888
							c28.1-8.484,95.648-36.624,88.388-109.12c16.3,12.504,26.908,23.556,26.908,23.556s-2.568-7.072-5.804-18.308
							c21.66,6.772,83.44,20.208,119.688-32.116C1135.667,2007.61,1138.2,2050.334,1138.2,2050.334"/>
					</g>
					<g>
						<path style="fill:#000072;" d="M1010.413,2188.515c-2.793,0-5.632-0.588-8.337-1.833
							c-3.787-1.738-93.284-43.225-142.163-96.309c-24.204-26.287-35.811-62.419-30.295-94.297
							c4.116-23.787,17.336-42.644,37.227-53.101c37.449-19.69,79.631-3.396,111.313,16.582c-2.59-14.944-4.343-31.169-3.977-46.787
							c0.901-38.308,22.009-68.098,55.09-77.744c31.821-9.272,64.858,3.318,84.163,32.09
							c36.76,54.785,44.421,176.865,44.729,182.036c0.659,11.023-7.744,20.491-18.77,21.15
							c-10.947,0.708-20.493-7.742-21.157-18.767c-1.936-32.219-12.539-124.16-38.02-162.134c-11.409-17-28.02-19.395-39.748-15.974
							c-15.984,4.661-25.813,19.719-26.296,40.281c-0.977,41.56,16.987,91.636,17.168,92.136c3.22,8.882-0.215,18.813-8.24,23.804
							c-8.022,4.99-18.438,3.694-24.985-3.127c-19.102-19.802-76.602-67.085-112.656-48.14
							c-11.077,5.823-15.046,16.545-16.426,24.514c-3.391,19.6,4.58,43.303,20.308,60.383
							c43.401,47.136,128.591,86.667,129.446,87.063c10.032,4.617,14.424,16.492,9.809,26.526
							C1025.225,2184.194,1017.982,2188.515,1010.413,2188.515z"/>
					</g>
					<g>
						<path style="fill:#FFFFFF;" d="M1209.85,2168.51c29.336-49.504,37.568-143.46-13.78-176.752
							c-52.836-34.256-127.888,20.408-111.944,70.828c16.2,51.224,73.668,27.18,73.668,27.18"/>
					</g>
					<g style="opacity:0.3;">
						<g>
							<g>
								<path style="fill:#FFFFFF;" d="M1229.713,2113.603c1.936-38.372-8.076-76.22-36.916-94.904
									c-41.012-26.608-95.388,0.336-110.236,37.328c-7.928-48.456,62.932-97.02,113.508-64.272
									C1231.721,2014.867,1238.645,2067.191,1229.713,2113.603"/>
							</g>
						</g>
					</g>
					<g>
						<path style="fill:#000072;" d="M1202.969,2164.431c4.784-17.336,8.544-34.188,11.02-51.308
							c1.228-8.528,2.264-17.06,2.56-25.576c0.268-8.504,0.016-16.968-0.952-25.188c-2.04-16.368-6.748-32.04-15.384-43.676
							c-8.428-11.596-21.116-19.396-35.204-20.908c-14.104-1.68-29.576,2.812-42.224,11.292c-6.32,4.244-11.836,9.652-15.944,15.604
							c-2.088,2.964-3.768,6.088-5.044,9.22c-1.38,3.124-2.228,6.276-2.788,9.356c-2.536,11.348,2.392,27.224,11.656,34.108
							c4.788,3.74,11.668,6.044,19.524,6.732c3.912,0.3,8.032,0.364,12.2,0.008c4.084-0.284,8.62-0.968,12.32-1.708l0.824-0.164
							c4.34-0.864,8.56,1.956,9.424,6.292c0.704,3.544-1.052,7.008-4.072,8.636c-4.988,2.672-9.476,4.496-14.508,6.14
							c-4.968,1.54-10.136,2.764-15.548,3.36c-10.708,1.264-22.952,0.144-34.244-5.768c-5.576-2.936-10.684-7.008-14.86-11.688
							c-4.148-4.696-7.468-9.96-9.924-15.28c-1.228-2.732-2.332-5.196-3.284-8.2c-0.468-1.488-0.916-2.992-1.328-4.5l-0.88-4.632
							c-0.984-6.2-1.036-12.608-0.016-18.7c1.908-12.28,7.384-23.232,14.236-32.28c6.772-9.236,15.164-16.664,24.168-23.028
							c18.104-12.404,40.44-19.588,63.628-17.408c23.188,1.864,45.428,14.716,59.06,33.164c6.888,9.124,11.972,19.212,15.324,29.48
							c3.46,10.252,5.456,20.68,6.428,31.012c1.04,10.336,0.956,20.596,0.104,30.704c-0.848,10.108-2.316,20.108-4.836,29.856
							c-5.048,19.384-13.66,38.264-27.672,53.204c-3.096,3.3-8.276,3.468-11.576,0.376c-2.292-2.152-3.072-5.308-2.296-8.144
							L1202.969,2164.431z"/>
					</g>
					<g>
						<path style="fill:#FFFFFF;" d="M995.901,2313.685c-68.96-38.752-96.5-87.944-90.524-145.196
							c6.152-58.936,86.992-153.036,163.068-104.888c68.736,43.496,36.736,103.828,16.072,131.448
							c-26.116,34.9-74.712,68.72-120.688,36.872L995.901,2313.685z"/>
					</g>
					<g style="opacity:0.3;">
						<g>
							<g>
								<path style="fill:#FFFFFF;" d="M1109.803,2121.232c-6.552-9.864-16.412-19.424-30.408-28.284
									c-76.068-48.156-156.94,45.924-163.08,104.872c-1.564,15.112-0.82,29.628,2.456,43.544
									c-11.908-22.476-16.116-46.856-13.396-72.868c6.14-58.952,87.012-153.032,163.08-104.912
									C1096.183,2081.148,1107.535,2101.432,1109.803,2121.232"/>
							</g>
						</g>
					</g>
					<g>
						<path style="fill:#000072;" d="M1324.74,2165.267c5.892,4.336,10.86,8.472,16.04,12.924
							c5.096,4.416,10.044,8.992,14.848,13.712c9.58,9.468,18.592,19.66,26.284,31.004c2.492,3.672,1.536,8.664-2.136,11.156
							c-3.2,2.168-7.404,1.724-10.08-0.86l-0.16-0.156c-8.736-8.42-18.624-15.804-29-22.48c-5.196-3.328-10.504-6.504-15.896-9.496
							c-5.324-2.936-11.044-5.932-16.148-8.236c-8.096-3.66-11.696-13.192-8.04-21.296c3.66-8.096,13.196-11.696,21.292-8.036
							c1.024,0.46,1.98,1.016,2.852,1.656L1324.74,2165.267z"/>
					</g>
					<g>
						<path style="fill:#000072;" d="M1064.196,2324.775c-5.756,1.428-11.604,2.676-17.512,3.42
							c-5.908,0.832-11.86,1.252-17.836,1.496c-5.976,0.168-11.96,0.04-17.972-0.316c-3.004-0.188-6.012-0.516-9.032-0.864
							c-3.12-0.408-5.876-0.76-9.48-1.492c-0.688-0.144-1.336-0.368-1.94-0.664l-1.28-0.648
							c-13.668-6.852-27.092-14.716-39.488-24.428c-12.496-9.552-24.068-20.84-33.864-33.928
							c-9.844-13.02-17.732-28.012-22.44-44.072c-4.848-16.016-6.468-32.888-5.42-49.2c0.084-2.052,0.324-4.068,0.484-6.1
							c0.172-1.98,0.472-4.392,0.824-6.496c0.704-4.344,1.668-8.536,2.812-12.616c2.288-8.156,5.344-15.816,8.824-23.188
							c7.004-14.716,16.044-28.076,26.5-40.272c10.504-12.148,22.572-23.124,36.492-32.048c13.86-8.896,29.808-15.804,47.212-18.216
							c17.336-2.528,35.82,0.152,51.664,7.32c8.02,3.468,15.288,8.068,21.9,12.696c6.72,4.78,13.164,10.328,19.032,16.716
							c11.764,12.632,20.712,29.976,22.688,48.28c1.004,9.088,0.516,18.148-1.016,26.76c-1.56,8.616-4.288,16.736-7.508,24.436
							c-6.68,15.34-15.24,28.988-25.836,41.332c-10.532,12.32-22.868,23.148-37.188,31.776c-14.24,8.54-31.36,14.408-49.22,13.792
							c-17.852-0.312-34.908-8.292-46.32-19.756c-3.172-3.18-3.16-8.328,0.02-11.5c2.4-2.388,5.908-2.968,8.852-1.752l0.236,0.104
							c12.564,5.208,24.668,7.3,36.224,5.54c11.56-1.592,22.696-6.748,33.212-13.648c20.892-14.084,38.576-36.064,48.948-59.176
							c4.952-11.584,7.604-23.436,6.624-34.42c-0.992-10.96-5.744-21.14-13.772-30.032c-3.988-4.436-8.624-8.596-13.8-12.36
							c-5.368-3.772-10.456-7.208-15.96-9.448c-10.916-4.784-22.568-6.356-34.24-4.62c-11.672,1.692-23.3,6.6-33.972,13.612
							c-10.672,7.04-20.424,16.072-28.92,26.204c-8.508,10.124-15.728,21.436-21.34,33.172c-2.752,5.872-5.112,11.876-6.756,17.84
							c-0.828,2.976-1.492,5.94-1.948,8.828c-0.244,1.508-0.4,2.736-0.544,4.404c-0.112,1.616-0.32,3.24-0.368,4.848
							c-0.724,12.92,0.512,25.632,3.892,37.76c3.416,12.112,9.1,23.588,16.568,34.184c15.092,21.188,36.872,38.508,60.424,53.628
							l-3.216-1.308c1.864,0.64,4.644,1.368,7.076,1.98c2.528,0.612,5.096,1.168,7.684,1.692c5.172,1.096,10.424,2.008,15.72,2.656
							c5.288,0.736,10.624,1.288,15.984,1.612c5.372,0.408,10.752,0.512,16.192,0.62l0.316,0.004
							c4.448,0.088,7.976,3.764,7.888,8.204C1070.228,2320.844,1067.64,2323.919,1064.196,2324.775"/>
					</g>
					<g>
						<path style="fill:#FFFFFF;" d="M2133.178,2674.674L2028.45,2274.49l-66.468-253.928
							c199.292,43.764,396.28,247.376,418.76,399.068c0.704,4.876,1.224,9.676,1.524,14.404
							C2390.934,2564.514,2248.55,2647.43,2133.178,2674.674"/>
					</g>
					<g>
						<path style="fill:#D3DDEA;" d="M2138.049,2098.72c-38.284,21.584-86.82,39.18-142.208,51.224l-33.852-129.4
							C2022.481,2033.841,2082.797,2061.873,2138.049,2098.72"/>
					</g>
					<g>
						<path style="fill:#D3DDEA;" d="M2133.178,2674.674L2028.45,2274.49l73.5-93.676c0,0,122.22,65.244,187.536,263.788
							c18.348,55.752,62.336,31.56,92.78-10.568C2390.934,2564.514,2248.55,2647.43,2133.178,2674.674"/>
					</g>
					<g>
						<path style="fill:#000072;" d="M2137.786,2694.15l-9.194-38.931c89.175-21.064,252.5-96.799,232.361-232.666
							c-20.403-137.585-204.827-338.87-403.25-382.466l8.584-39.067c96.277,21.155,200.288,81.045,285.361,164.319
							c82.966,81.208,137.227,172.822,148.87,251.348C2421.715,2559.675,2279.185,2660.749,2137.786,2694.15z"/>
					</g>
					<g>
						<path style="fill:#FFFFFF;" d="M1756.25,3348.544c-48.008,59.512-207.108,39.752-266.096,36.62
							c-65.016-3.384-78.936-54.704-70.004-91.436c0.744-3.128,1.636-6.104,2.716-8.968c16.896-45.556,60.364-60.852,60.364-60.852
							c-38.148-80.24-72.012-228.844-86.152-346.744c-7.184-59.584-9.308-111.352-4.432-142.504l421.548,116.972
							C1750.854,3081.668,1814.382,3276.492,1756.25,3348.544"/>
					</g>
					<g>
						<path style="fill:#D3DDEA;" d="M1756.25,3348.544c-48.008,59.512-207.108,39.752-266.096,36.62
							c-65.016-3.384-78.936-54.704-70.004-91.436c12.468,14.216,67.216,39.564,168.388,35.152
							c128.264-5.596,154.536-25.764,161.98-119.436c6.96-87.648-50.8-135.368-79.68-146.72
							c-21.508-8.448-191.364-78.08-273.76-185.56c-7.184-59.584-9.308-111.352-4.432-142.504l421.548,116.972
							C1750.854,3081.668,1814.382,3276.492,1756.25,3348.544"/>
					</g>
					<g>
						<path style="fill:#000072;" d="M1603.777,3410.888c-32.668,0-64.443-2.271-90.427-4.131
							c-9.214-0.659-17.402-1.245-24.226-1.606c-43.445-2.28-65.713-22.754-76.741-39.531c-19.255-29.292-16.899-64.57-8.271-87.822
							c12.27-33.091,36.113-52.734,53.115-63.12c-53.196-126.855-99.458-386.45-84.329-483.113l39.517,6.187
							c-13.516,86.367,31.797,357.563,88.875,477.566c2.434,5.117,2.583,11.035,0.405,16.27c-2.178,5.234-6.474,9.302-11.824,11.187
							c-0.232,0.083-35,13.188-48.257,48.936c-5.378,14.497-6.167,36.177,4.194,51.938c8.664,13.179,23.943,20.435,45.413,21.563
							c7.041,0.366,15.483,0.972,24.983,1.65c61.252,4.39,188.684,13.506,224.485-30.869
							c23.813-29.512,23.298-91.382,22.646-169.707c-0.737-88.76-1.655-199.229,31.594-319.98l38.564,10.62
							c-31.77,115.376-30.876,222.751-30.159,309.028c0.718,86.323,1.284,154.507-31.518,195.156
							C1739.112,3401.64,1669.647,3410.888,1603.777,3410.888z"/>
					</g>
					<g>
						<path style="fill:#000072;" d="M1604.627,3281.451c-3.552,4.172-7.356,8.952-10.244,13.616
							c-2.964,4.704-5.348,9.508-6.94,14.34c-0.852,2.392-1.448,4.82-1.86,7.252c-0.472,2.584-0.912,5.476-1.1,8.14
							c-0.488,5.428-0.176,10.668,0.716,15.496c1.844,9.692,6.856,17.444,14.78,23.62c7.928,6.184,18.416,10.544,29.536,13.968
							l0.184,0.06c6.14,1.892,9.58,8.404,7.688,14.54c-1.76,5.716-7.528,9.088-13.272,8c-13.416-2.536-27.248-7.168-39.592-16.38
							c-6.12-4.604-11.684-10.492-15.868-17.38c-4.216-6.868-6.78-14.668-7.96-22.32c-1.188-7.68-0.856-15.244,0.18-22.388
							c0.524-3.632,1.188-6.992,2.16-10.576c1.06-3.736,2.412-7.352,4.076-10.772c3.432-6.816,8.052-12.736,13.32-17.66
							c5.468-4.848,11.088-8.724,18.156-11.48c3.02-1.176,6.42,0.316,7.596,3.336c0.812,2.076,0.356,4.336-0.992,5.924
							L1604.627,3281.451z"/>
					</g>
					<g>
						<path style="fill:#000072;" d="M1508.893,3278.638c-3.552,4.168-7.356,8.952-10.244,13.616
							c-2.964,4.704-5.348,9.508-6.94,14.34c-0.852,2.392-1.448,4.82-1.86,7.252c-0.472,2.584-0.912,5.472-1.1,8.14
							c-0.488,5.428-0.172,10.668,0.716,15.496c1.844,9.692,6.856,17.444,14.78,23.62c7.928,6.184,18.416,10.544,29.536,13.968
							l0.184,0.06c6.14,1.892,9.58,8.4,7.688,14.536c-1.76,5.72-7.528,9.092-13.268,8.004c-13.42-2.536-27.252-7.168-39.596-16.38
							c-6.116-4.604-11.684-10.492-15.868-17.384c-4.216-6.868-6.78-14.668-7.96-22.316c-1.188-7.68-0.856-15.244,0.18-22.388
							c0.524-3.632,1.188-6.992,2.16-10.576c1.06-3.736,2.412-7.356,4.076-10.776c3.432-6.812,8.052-12.732,13.32-17.656
							c5.468-4.848,11.088-8.724,18.156-11.48c3.02-1.176,6.42,0.316,7.596,3.336c0.812,2.076,0.356,4.336-0.992,5.924
							L1508.893,3278.638z"/>
					</g>
					<g>
						<path style="fill:#FFFFFF;" d="M2348.83,3385.197c-58.976,3.084-218.096,22.844-266.108-36.668
							c-58.144-72.04-123.364-285.792-185.544-464.408l347.096-219.58c8.76,40.816,22.2,101.28,37.164,170.956
							c25.78,119.672,55.972,266.644,74.32,388.412c0,0,43.488,15.308,60.392,60.844c1.712,4.608,3.048,9.556,3.924,14.736
							C2426.202,3335.585,2410.514,3381.925,2348.83,3385.197"/>
					</g>
					<g>
						<path style="fill:#D3DDEA;" d="M2348.83,3385.197c-58.976,3.084-218.096,22.844-266.108-36.668
							c-58.144-72.04-123.364-285.792-185.544-464.408l347.096-219.58c8.76,40.816,22.2,101.28,37.164,170.956
							c-70.364,119.104-197.876,178.576-217.148,252.864c-17.932,68.992,15.688,188.128,86.016,229.824
							c55.744,33.012,224.3,30.952,269.768-18.696C2426.202,3335.585,2410.514,3381.925,2348.83,3385.197"/>
					</g>
					<g>
						<path style="fill:#000072;" d="M2235.213,3410.888c-65.874,0-135.334-9.243-168.042-49.78
							c-50.032-62.012-101.267-213.032-155.513-372.917c-10.974-32.349-22.322-65.798-33.354-97.49l37.778-13.149
							c11.082,31.841,22.456,65.366,33.457,97.791c50.733,149.541,103.193,304.17,148.762,360.649
							c35.793,44.365,163.237,35.249,224.485,30.869c9.502-0.679,17.944-1.284,24.983-1.65c21.47-1.128,36.75-8.384,45.415-21.563
							c10.361-15.762,9.573-37.441,4.197-51.934c-13.264-35.752-48.027-48.857-48.376-48.984c-6.86-2.515-11.926-8.618-13.015-15.84
							c-24.063-159.556-69.46-366.816-96.584-490.649c-5.686-25.955-10.688-48.792-14.697-67.517l39.111-8.379
							c4.001,18.677,8.989,41.453,14.658,67.336c26.631,121.577,70.808,323.264,95.432,482.554
							c16.575,8.647,46.648,28.95,60.974,67.563c8.623,23.252,10.979,58.53-8.276,87.822
							c-11.028,16.777-33.293,37.251-76.741,39.531c-6.824,0.361-15.012,0.947-24.226,1.606
							C2299.661,3408.617,2267.874,3410.888,2235.213,3410.888z"/>
					</g>
					<g>
						<path style="fill:#000072;" d="M2240.401,3271.525c7.072,2.756,12.692,6.632,18.16,11.48
							c5.264,4.928,9.892,10.844,13.316,17.66c1.664,3.424,3.016,7.04,4.08,10.776c0.972,3.58,1.636,6.944,2.164,10.572
							c1.032,7.144,1.364,14.712,0.176,22.392c-1.18,7.652-3.744,15.448-7.964,22.32c-4.184,6.884-9.748,12.772-15.864,17.38
							c-12.344,9.208-26.176,13.84-39.596,16.376c-6.308,1.192-12.392-2.956-13.584-9.268c-1.112-5.876,2.412-11.556,8-13.272
							l0.188-0.056c11.12-3.428,21.604-7.784,29.532-13.968c7.928-6.176,12.944-13.932,14.784-23.624
							c0.888-4.828,1.2-10.064,0.712-15.496c-0.188-2.664-0.628-5.552-1.096-8.14c-0.416-2.428-1.008-4.86-1.864-7.248
							c-1.588-4.832-3.976-9.636-6.936-14.34c-2.888-4.664-6.692-9.448-10.244-13.62l-0.556-0.656
							c-2.104-2.468-1.808-6.168,0.66-8.268C2236.165,3271.081,2238.46,3270.777,2240.401,3271.525"/>
					</g>
					<g>
						<path style="fill:#000072;" d="M2336.135,3268.712c7.072,2.756,12.692,6.632,18.16,11.48
							c5.264,4.928,9.892,10.844,13.316,17.656c1.664,3.424,3.016,7.044,4.08,10.78c0.972,3.58,1.636,6.944,2.164,10.572
							c1.032,7.144,1.364,14.712,0.176,22.392c-1.18,7.648-3.744,15.444-7.964,22.316c-4.184,6.888-9.748,12.776-15.864,17.384
							c-12.344,9.208-26.176,13.84-39.596,16.376c-6.308,1.192-12.392-2.956-13.584-9.268c-1.112-5.876,2.412-11.556,8-13.272
							l0.188-0.056c11.12-3.428,21.604-7.784,29.532-13.968c7.924-6.176,12.94-13.932,14.784-23.624
							c0.888-4.828,1.2-10.064,0.712-15.496c-0.188-2.668-0.628-5.552-1.096-8.14c-0.416-2.428-1.008-4.86-1.864-7.248
							c-1.588-4.832-3.976-9.636-6.936-14.34c-2.888-4.664-6.692-9.452-10.248-13.62l-0.556-0.66
							c-2.1-2.464-1.804-6.164,0.664-8.264C2331.899,3268.269,2334.195,3267.96,2336.135,3268.712"/>
					</g>
					<g>
						<path style="fill:#FFFFFF;" d="M2106.369,2105.396c0,0,292.62,516.432,100.872,738.268
							c-49.24,56.968-192.648,152.064-396.384,145.372c-212.948-6.996-352.62-119.944-385.94-171.068
							c-156.796-240.564,29.892-634.756,86.32-727.576l305.3-85.288L2106.369,2105.396z"/>
					</g>
					<g>
						<path style="fill:#D3DDEA;" d="M2207.225,2843.643c-49.208,57-192.62,152.1-396.348,145.388
							c-212.952-6.984-352.652-119.956-385.964-171.044c-44.684-68.552-61.472-149.596-61.34-232.604
							c9.404,45.176,25.792,88.204,51.224,127.248c33.312,51.092,172.964,164.06,385.916,171.044
							c203.728,6.716,347.14-88.388,396.396-145.34c48.396-56.016,65.952-130.788,65.1-211.292
							C2282.537,2645.515,2276.313,2763.723,2207.225,2843.643"/>
					</g>
					<g>
						<path style="fill:#D3DDEA;" d="M2110.467,2112.779c-74.24,34.164-176.952,55.344-290.456,55.344
							c-126.492,0-239.548-26.284-314.768-67.568c2.148-3.712,4.12-7.116,6-10.164l305.276-85.296l289.872,100.296
							C2106.391,2105.391,2107.823,2107.943,2110.467,2112.779"/>
					</g>
					<g>
						<path style="fill:#000072;" d="M1466.09,2873.01c-13.624-8.836-26.524-18.932-38.304-30.844
							c-2.96-2.968-5.856-6.072-8.608-9.384c-2.708-3.22-5.62-6.988-7.772-10.3c-2.328-3.388-4.636-6.8-6.876-10.256
							c-2.272-3.44-4.572-6.872-6.512-10.5c-16.732-28.452-28.468-59.604-36.684-91.332c-8.164-31.784-12.932-64.3-14.516-96.804
							c-1.612-32.516-0.512-65,2.636-97.164c6.8-64.296,21.304-127.208,41.048-188.088c19.488-60.912,43.72-120.5,77.932-174.656
							c2.376-3.756,7.348-4.884,11.108-2.508c3.216,2.036,4.504,5.972,3.316,9.42l-0.016,0.048
							c-20.504,59.636-42.716,117.82-60.752,177.472c-8.94,29.816-16.484,59.992-22.844,90.328
							c-6.384,30.332-11.284,60.92-14.256,91.592c-3.2,30.64-4.524,61.408-3.252,91.964c1.3,30.532,4.764,60.916,11.776,90.42
							c6.932,29.52,17.404,57.992,30.748,85.064c3.088,6.92,7.224,13.244,10.588,20.06c1.784,3.532,3.448,6.216,5.476,9.296
							c2.012,2.98,4.1,6.004,6.308,8.996c8.956,11.912,19.184,23.44,29.72,34.904l0.052,0.052c3.016,3.28,2.8,8.376-0.476,11.392
							C1473.166,2874.722,1469.098,2874.962,1466.09,2873.01"/>
					</g>
					<g>
						<path style="fill:#000072;" d="M2039.233,2960.236c-26.6,13.356-54.9,23.468-83.924,30.62
							c-29.004,7.344-58.788,11.624-88.668,13.44c-29.9,1.876-59.916,0.684-89.556-2.94c-29.632-3.68-58.94-10.116-86.968-20.152
							c-4.188-1.496-6.368-6.104-4.868-10.292c1.284-3.588,4.856-5.7,8.484-5.288l0.036,0.008
							c28.784,3.26,57.248,5.968,85.752,7.228c14.252,0.444,28.476,1.108,42.708,0.772c14.22-0.036,28.424-0.42,42.596-1.232
							c14.196-0.576,28.328-1.988,42.452-3.492c14.148-1.376,28.188-3.616,42.26-5.784c28.136-4.552,55.984-10.932,84.076-17.868
							l0.08-0.02c4.312-1.068,8.672,1.568,9.74,5.88C2044.349,2954.832,2042.512,2958.588,2039.233,2960.236"/>
					</g>
					<g>
						<path style="fill:#000072;" d="M2149.549,2171.904c33.052,46.828,53.88,99.92,74.392,152.804
							c10.152,26.536,19.284,53.488,27.444,80.784c4.08,13.652,8.024,27.352,11.58,41.18c1.84,6.892,3.472,13.848,5.032,20.82
							c1.612,6.964,3.224,13.924,4.592,20.952c11.716,55.944,18.348,113.58,15.056,171.636c-1.796,28.96-6.388,58.036-15.304,85.98
							c-8.824,27.9-21.924,54.768-40.04,77.676c-2.748,3.476-7.8,4.068-11.28,1.316c-3.088-2.444-3.9-6.708-2.112-10.064
							l0.028-0.044c25.636-48.24,35.692-102.076,37.1-156.264c1.636-54.34-6.22-109.092-17.832-162.912
							c-1.388-6.748-3.02-13.448-4.644-20.156l-2.424-10.064l-2.62-10.024c-3.316-13.404-7.032-26.736-10.88-40.036
							c-7.776-26.568-16.4-52.94-25.476-79.192c-17.976-52.684-41.44-102.992-57.028-157.444l-0.008-0.036
							c-1.232-4.308,1.26-8.8,5.564-10.032C2144.093,2167.812,2147.617,2169.172,2149.549,2171.904"/>
					</g>
					<g>
						<path style="fill:#FFFFFF;" d="M2026.616,819.025c146.5-147.248,325.94-252.552,398.892-210.3
							c82.164,47.58,82.044,453.368,3.312,601.28L2026.616,819.025z"/>
					</g>
					<g>
						<path style="fill:#000072;" d="M2434.053,1243.461l-436.372-424.194l14.514-14.588
							c143.923-144.658,335.61-264.463,423.506-213.555c98.32,56.936,91.646,477.07,11.072,628.44L2434.053,1243.461z
							 M2055.67,818.903l366.702,356.47c27.932-69.919,45.166-184.556,44.788-303.567c-0.469-148.306-27.202-231.211-51.843-245.479
							c-27.439-15.894-82.813-3.381-151.931,34.341C2196.895,696.95,2123.721,752.753,2055.67,818.903z"/>
					</g>
					<g>
						<path style="fill:#F6A42B;" d="M1587.746,819.025c-146.5-147.248-325.94-252.552-398.888-210.3
							c-82.168,47.58-82.048,453.368-3.316,601.28L1587.746,819.025z"/>
					</g>
					<g style="opacity:0.5;">
						<g>
							<g>
								<path style="fill:#FFFFFF;" d="M1587.762,819.013l-21.692,21.052c-142.936-137.864-310.988-233.216-380.996-192.664
									c-27.812,16.12-46.216,73.34-55.3,147.684c6.988-92.748,26.576-167.552,59.092-186.364
									C1261.794,566.477,1441.262,671.785,1587.762,819.013"/>
							</g>
						</g>
					</g>
					<g>
						<path style="fill:#000072;" d="M1180.308,1243.461l-12.72-23.896c-80.574-151.372-87.246-571.506,11.077-628.442
							c87.898-50.913,279.58,68.901,423.501,213.557l14.514,14.588L1180.308,1243.461z M1228.897,619.587
							c-11.99,0-22.043,2.222-29.844,6.738c-24.643,14.27-51.379,97.175-51.851,245.481
							c-0.378,119.011,16.856,233.647,44.788,303.567l366.702-356.47c-68.052-66.15-141.226-121.951-207.715-158.235
							C1301.514,633.674,1259.083,619.587,1228.897,619.587z"/>
					</g>
					<g>
						<path style="fill:#FFFFFF;" d="M2558.42,1701.404c-6.512,39.528-21.572,82.996-50.596,126.416
							c-81.76,122.188-274.544,244-699.968,276.78c-430.604-33.16-622.82-157.584-702.868-281.288
							c-27.128-41.904-41.38-83.712-47.648-121.908c-15.488-94.016,12.828-172.356,15.82-200.716
							c19.572-172.12,64.844-781.492,734.696-781.492c334.924,0,513.692,152.356,611.176,326.184
							c97.532,173.876,113.732,369.272,123.52,455.308C2545.544,1529.048,2573.856,1607.388,2558.42,1701.404"/>
					</g>
					<g>
						<path style="fill:#D3DDEA;" d="M2507.823,1827.822c-81.756,122.188-274.544,243.996-699.968,276.776
							c-430.604-33.16-622.816-157.58-702.864-281.288c0,0,121.14,87.412,352.832,143.944c231.076,56.392,472.696,56.392,703.768,0
							C2361.927,1918.37,2479.603,1846.442,2507.823,1827.822"/>
					</g>
					<g>
						<path style="fill:#FFFFFF;" d="M1778.448,844.697c0,241.716-196.016,437.732-437.776,437.732
							c-79.34,0-153.784-21.096-217.964-58.056c65.796-223.804,224.756-485.568,637.78-504.144
							C1772.176,759.657,1778.448,801.465,1778.448,844.697"/>
					</g>
					<g>
						<path style="fill:#F6A42B;" d="M1778.448,844.697c0,241.716-196.016,437.732-437.776,437.732
							c-79.34,0-153.784-21.096-217.964-58.056c65.796-223.804,224.756-485.568,637.78-504.144
							C1772.176,759.657,1778.448,801.465,1778.448,844.697"/>
					</g>
					<g style="opacity:0.5;">
						<g>
							<g>
								<path style="fill:#FFFFFF;" d="M1771.861,768.689c-325.092-19.776-538.74,245.136-625.236,468.504
									c-8.104-4.036-16.124-8.32-23.936-12.816c65.828-223.792,224.764-485.568,637.8-504.152
									C1765.198,736.009,1768.978,752.181,1771.861,768.689"/>
							</g>
						</g>
					</g>
					<g>
						<path style="fill:#000072;" d="M2452.604,1093.404c3.888,6.26,7.568,12.644,11.204,19.068l5.372,9.68
							c1.684,3.272,3.224,6.612,4.848,9.92c3.252,6.608,6.404,13.276,9.44,20c2.868,6.776,5.708,13.576,8.38,20.44
							c2.78,6.828,5.396,13.716,7.74,20.692c2.384,6.96,4.864,13.908,7.02,20.944c4.2,14.096,8.448,28.196,12.048,42.452
							c3.904,14.184,7.088,28.524,10.492,42.82c3.056,14.364,6.192,28.716,8.816,43.148c5.436,28.832,9.964,57.812,13.788,86.796
							c1.9,14.488,3.684,28.988,5.336,43.42l2.432,21.62c0.212,1.716,0.396,3.78,0.624,5.216l0.672,4.468
							c0.632,3.264,1.232,6.508,2.024,10.012c3.008,13.796,6.404,28.324,9.132,42.936c2.76,14.644,5.036,29.5,6.608,44.488
							c2.912,30,3.276,60.588-0.824,90.852c-1.772,15.12-5.044,30.228-9.044,44.988c-3.96,14.804-9.192,29.248-15.232,43.288
							c-5.892,14.132-13.184,27.592-20.848,40.764c-4.084,6.428-7.924,13.028-12.396,19.18l-6.532,9.352l-6.936,9.032
							c-4.508,6.12-9.608,11.72-14.464,17.536c-4.94,5.744-10.248,11.124-15.38,16.672c-5.392,5.276-10.776,10.56-16.268,15.712
							c-5.664,4.944-11.208,10.056-16.98,14.848c-23.092,19.224-47.72,36.336-73.364,51.444
							c-25.656,15.096-52.236,28.324-79.292,40.236c-27.016,12.06-54.852,21.844-82.748,31.168
							c-14.056,4.308-28.052,8.848-42.268,12.472l-21.256,5.72l-21.392,5.08c-57.096,13.2-114.92,22.344-172.992,27.436
							c-4.404,0.384-8.292-2.876-8.676-7.284c-0.36-4.108,2.488-7.768,6.44-8.56c56.724-11.148,113.032-23.412,168.308-38.808
							l20.72-5.768l20.536-6.284c13.752-4.012,27.172-8.932,40.78-13.3c26.884-9.584,53.584-19.664,79.44-31.444
							c25.864-11.732,51.12-24.668,75.28-39.244c24.152-14.588,47.092-30.948,68.364-49.056
							c21.272-18.1,40.708-38.148,57.552-60.036l6.276-8.232l5.864-8.504c4.044-5.596,7.444-11.572,11.116-17.384
							c6.824-11.912,13.348-24.016,18.536-36.692c5.34-12.6,9.956-25.512,13.416-38.728c3.496-13.22,6.348-26.54,7.868-40.228
							c3.756-27.22,3.588-54.996,1.016-82.668c-1.404-13.848-3.456-27.676-6.008-41.524c-2.536-13.896-5.688-27.616-8.804-42.148
							c-0.788-3.576-1.512-7.456-2.224-11.308l-0.92-6.284c-0.3-2.156-0.42-3.7-0.64-5.584l-2.344-21.592
							c-1.52-14.388-3.072-28.68-4.78-42.96c-3.416-28.528-7.504-56.904-12.468-85.104c-2.392-14.12-5.284-28.124-8.088-42.156
							c-3.144-13.936-6.072-27.94-9.704-41.752c-13.9-55.524-31.968-109.3-49.12-164.516l-0.036-0.112
							c-1.32-4.248,1.056-8.764,5.304-10.084C2446.948,1088.844,2450.716,1090.36,2452.604,1093.404"/>
					</g>
					<g>
						<path style="fill:#000072;" d="M1512.311,760.263c22.944-10.504,46.772-19.064,70.964-26.424
							c24.236-7.196,48.88-13.104,73.78-17.572c24.868-4.672,50.008-7.636,75.168-9.916c25.184-2.08,50.432-2.98,75.656-3.168v32
							h-0.024v-32c25.244,0.188,50.516,1.088,75.724,3.176c25.184,2.28,50.348,5.252,75.244,9.932
							c24.916,4.476,49.584,10.388,73.844,17.6c24.212,7.376,48.06,15.956,71.024,26.468c4.028,1.848,5.792,6.608,3.948,10.636
							c-1.684,3.676-5.792,5.468-9.564,4.352l-0.036-0.012c-23.632-6.988-47.348-13.312-71.328-18.364
							c-23.936-5.224-48.092-9.284-72.328-12.568c-24.276-3.08-48.616-5.652-73.068-7c-24.432-1.532-48.932-2.336-73.46-2.22v-32
							h0.024v32c-24.504-0.116-48.984,0.684-73.396,2.216c-24.428,1.34-48.748,3.912-72.996,6.984
							c-24.216,3.276-48.348,7.324-72.26,12.536c-23.964,5.044-47.66,11.344-71.272,18.312l-0.04,0.012
							c-4.244,1.256-8.704-1.172-9.956-5.42C1506.811,765.947,1508.735,761.891,1512.311,760.263"/>
					</g>
					<g>
						<path style="fill:#000072;" d="M1665.381,2097.302c-58.116-4.784-115.952-13.972-173.076-27.12l-21.388-5.108l-21.264-5.692
							c-14.236-3.596-28.172-8.34-42.252-12.576c-27.932-9.256-55.692-19.252-82.732-31.256
							c-27.06-11.916-53.644-25.148-79.304-40.248c-25.648-15.112-50.284-32.232-73.376-51.456
							c-23.128-19.172-44.448-40.836-63.072-64.824l-6.94-9.028l-6.532-9.356c-4.472-6.152-8.312-12.752-12.396-19.184
							c-7.664-13.176-14.956-26.636-20.848-40.768c-6.04-14.048-11.272-28.488-15.236-43.3c-3.984-14.764-7.3-29.864-9.012-45
							c-4.068-30.272-3.724-60.856-0.812-90.852c1.58-14.992,3.852-29.844,6.612-44.492c2.728-14.62,6.128-29.144,9.136-42.94
							c0.788-3.504,1.392-6.744,2.02-10.016l0.672-4.468c0.228-1.428,0.412-3.496,0.624-5.212l2.44-21.62
							c1.672-14.424,3.444-28.928,5.344-43.416c3.82-28.984,8.344-57.964,13.78-86.8c2.624-14.432,5.756-28.788,8.812-43.148
							c3.4-14.296,6.584-28.64,10.488-42.824c3.592-14.256,7.856-28.352,12.032-42.456c2.168-7.036,4.616-13.988,7.008-20.948
							c2.308-6.988,4.952-13.864,7.728-20.696c2.676-6.864,5.48-13.676,8.372-20.444c3.052-6.716,6.184-13.392,9.444-20
							c1.624-3.312,3.176-6.644,4.856-9.92l5.384-9.676c3.64-6.42,7.332-12.8,11.232-19.056c2.356-3.776,7.328-4.928,11.104-2.572
							c3.168,1.976,4.492,5.796,3.44,9.208l-0.04,0.12c-17.04,55.26-35.208,108.988-49.112,164.516
							c-3.632,13.812-6.56,27.816-9.708,41.752c-2.808,14.028-5.696,28.036-8.088,42.152c-4.972,28.2-9.064,56.576-12.48,85.112
							c-1.7,14.272-3.276,28.568-4.772,42.956l-2.336,21.596c-0.22,1.88-0.34,3.428-0.644,5.58l-0.916,6.284
							c-0.716,3.856-1.44,7.74-2.228,11.308c-3.112,14.532-6.268,28.256-8.8,42.148c-2.556,13.852-4.604,27.68-6.008,41.524
							c-2.564,27.672-2.752,55.456,1.032,82.668c1.588,13.68,4.392,26.996,7.904,40.216c3.456,13.22,8.076,26.124,13.412,38.72
							c5.192,12.672,11.712,24.776,18.536,36.688c3.672,5.808,7.076,11.784,11.116,17.372l5.868,8.504l6.276,8.236
							c16.816,21.904,36.328,41.872,57.58,59.98c21.268,18.104,44.204,34.456,68.348,49.044
							c24.156,14.568,49.408,27.5,75.272,39.228l19.528,8.548l19.828,7.928c6.584,2.7,13.276,5.16,19.984,7.588
							c6.708,2.416,13.364,4.976,20.12,7.288c13.58,4.448,27.06,9.156,40.796,13.2l20.528,6.308l20.72,5.744
							c55.252,15.444,111.552,27.668,168.236,39.116c4.34,0.872,7.148,5.096,6.272,9.436
							C1673.081,2094.927,1669.377,2097.635,1665.381,2097.302"/>
					</g>
					<g>
						<path style="fill:#000072;" d="M1897.952,1738.306c-16.84,21.208-21.832,45.572-27.912,67.012
							c-6.588,23.236-14.42,43.112-39.8,52.04c-13.252,4.68-27.912,4.68-41.164,0c-25.26-8.888-33.136-28.616-39.684-51.728
							c-6.16-21.52-11.108-46-28.028-67.324l88.292-32.52L1897.952,1738.306z"/>
					</g>
					<g>
						<path style="fill:#FF8CC3;" d="M1870.041,1805.318c-6.588,23.236-14.424,43.112-39.8,52.04c-13.256,4.68-27.912,4.68-41.168,0
							c-25.26-8.888-33.132-28.616-39.684-51.728c7.956-3.86,16.884-6.044,26.276-6.044c12.788,0,24.636,4.016,34.38,10.836
							c9.748-6.82,21.636-10.836,34.424-10.836C1853.629,1799.586,1862.285,1801.654,1870.041,1805.318"/>
					</g>
					<g>
						<path style="fill:#000072;" d="M1809.654,1875.871c-8.662,0-17.322-1.45-25.566-4.353
							c-35.794-12.6-44.177-43.391-51.572-70.562c-4.98-18.293-10.132-37.212-22.903-53.345c-5.139-6.494-4.043-15.93,2.453-21.072
							c6.494-5.139,15.93-4.041,21.072,2.454c16.58,20.947,22.817,43.865,28.323,64.084c7.651,28.105,12.576,43.098,32.588,50.144
							c10.064,3.54,21.15,3.535,31.213,0c20.012-7.046,24.937-22.039,32.588-50.144c5.505-20.22,11.743-43.137,28.323-64.084
							c5.146-6.494,14.585-7.593,21.072-2.454c6.497,5.142,7.593,14.578,2.454,21.072c-12.771,16.133-17.922,35.051-22.903,53.345
							c-7.395,27.17-15.779,57.961-51.572,70.562C1826.978,1874.421,1818.316,1875.871,1809.654,1875.871z"/>
					</g>
					<g>
						<path style="fill:#000072;" d="M1408.819,1134.021c-7.004-10.932,39.544-108.636,127.116-79.696
							c31.54,10.428,34.484,41.192,10.02,47.736c-23.312,6.232-33.8,1.18-69.928,13.86
							C1455.583,1123.098,1415.823,1144.953,1408.819,1134.021"/>
					</g>
					<g>
						<path style="fill:#000072;" d="M2205.057,1134.021c7.004-10.932-39.548-108.636-127.116-79.696
							c-31.544,10.428-34.484,41.192-10.02,47.736c23.308,6.232,33.796,1.18,69.924,13.86
							C2158.292,1123.098,2198.049,1144.953,2205.057,1134.021"/>
					</g>
					<g>
						<path style="fill:#EE7E80;" d="M2420.998,1001.955c-5.016,35.832-10.704,59.288-14.216,59.288
							c-8.068,0-47.58-73.756-105.784-141.032c-18.064-20.904-36.084-40.008-52.18-55.44c-26.172-25.048-20.78-63.052,2.968-90.436
							c37.672-43.484,118.08-89.02,150.064-85.796c11.876,1.164,21.7,37.42,26.424,91.48c1.212,14.008,2.092,29.184,2.592,45.24
							C2432.83,888.771,2427.479,955.671,2420.998,1001.955"/>
					</g>
					<g>
						<path style="fill:#EA5C66;" d="M2420.998,1001.955c-5.016,35.832-10.704,59.288-14.216,59.288
							c-8.068,0-47.58-73.756-105.784-141.032c-18.064-20.904-36.084-40.008-52.18-55.44c-26.172-25.048-20.78-63.052,2.968-90.436
							c37.672-43.484,118.08-89.02,150.064-85.796c11.876,1.164,21.7,37.42,26.424,91.48c0,0-21.864-33.32-44.112-31.984
							c-18.356,1.128-74.132,35.456-76.26,68.4c-3.308,51.136,33.572,45.244,70.448,153.7
							C2389.43,1002.747,2405.698,1009.771,2420.998,1001.955"/>
					</g>
					<g>
						<path style="fill:#000072;" d="M2444.394,824.861c0.58,38.628-1.324,77.04-5.044,115.24
							c-1.82,19.112-3.98,38.172-6.764,57.208c-1.368,9.52-2.744,19.052-4.444,28.596c-1.732,9.588-3.488,19.012-6.384,29.032
							c-0.812,2.592-1.5,5-3.076,8.324c-0.2,0.412-0.4,0.832-0.712,1.364c-0.276,0.488-0.544,0.972-1.052,1.68
							c-0.256,0.344-0.408,0.584-0.76,1.004c-0.4,0.464-0.828,0.92-1.272,1.344c-0.16,0.164-0.48,0.448-0.98,0.82
							c-0.44,0.328-0.904,0.628-1.376,0.908c-0.612,0.432-2.736,1.312-4.552,1.468c-1.096,0.12-1.58,0.068-1.96,0.032
							c-0.452-0.04-0.912-0.104-1.372-0.184c-0.912-0.168-1.82-0.424-2.668-0.748c-0.52-0.188-0.62-0.268-0.82-0.364l-0.568-0.312
							l-1.12-0.664c-0.344-0.216-0.768-0.492-1.024-0.684l-0.62-0.504l-1.212-1.036c-2.648-2.496-4.212-4.504-5.912-6.584
							c-1.608-2.036-3.108-4.044-4.568-6.036c-5.764-7.964-11.072-15.836-16.452-23.688c-10.66-15.716-21.476-31.16-32.632-46.308
							c-11.124-15.168-22.76-29.896-34.84-44.152c-12.088-14.156-24.84-28.052-37.864-41.46c-6.528-6.7-13.152-13.288-19.892-19.696
							l-5.072-4.776c-2.004-2.072-4.084-4.14-6.012-6.336c-3.704-4.576-7.108-9.508-9.608-14.972
							c-5.136-10.84-7.316-23.068-6.504-34.696c0.788-11.664,4.084-22.764,8.98-32.824c2.424-5.056,5.388-9.768,8.572-14.296
							c1.588-2.272,3.38-4.364,5.08-6.544c1.724-2.04,3.452-3.852,5.188-5.784c6.9-7.66,14.348-14.404,21.868-21.036
							c15.244-12.932,31.392-24.388,48.356-34.676c8.42-5.244,17.268-9.852,26.284-14.248c9.112-4.28,18.356-8.34,28.468-11.488
							c4.92-1.684,10.316-2.964,15.836-4.036c2.968-0.368,5.804-0.812,8.888-1.028l5.028,0.048l2.512,0.072
							c0.52,0.036,0.62-0.016,1.472,0.096c1.016,0.156,2.036,0.356,3.036,0.612c2.108,0.496,3.504,1.264,5.196,2.088
							c1.436,0.812,2.592,1.664,3.82,2.596c0.948,0.832,1.872,1.7,2.76,2.596c0.728,0.816,1.404,1.632,2.084,2.468
							c2.412,3.188,4.028,6.132,5.352,8.9c2.648,5.56,4.28,10.664,5.78,15.748c5.528,20.164,7.76,39.492,9.612,58.936
							C2443.206,786.27,2444.077,805.582,2444.394,824.861 M2417.362,825.685c-0.86-18.7-2.264-37.356-4.508-55.756
							c-2.308-18.3-5.384-36.784-10.436-53.16c-1.272-3.992-2.708-7.916-4.256-10.888c-0.748-1.504-1.548-2.68-2.02-3.272
							c-0.092-0.064-0.172-0.168-0.22-0.244c0.02,0.084,0.076,0.14,0.156,0.164c0.24,0.272,0.456,0.388,0.868,0.612
							c0.584,0.404,0.984,0.444,1.892,0.788c0.42,0.124,0.856,0.204,1.292,0.228c0.276,0.02-0.228,0.028-0.304,0.04l-1.048,0.056
							c-0.696,0.02-1.392,0.02-2.092,0c-1.644,0.184-3.504,0.556-5.244,0.776c-3.764,0.872-7.672,1.668-11.724,3.116
							c-16.204,5.144-32.52,13.732-48.18,22.732c-15.688,9.14-30.812,19.488-44.756,30.904c-6.82,5.82-13.588,11.74-19.512,18.112
							c-1.464,1.58-3.052,3.18-4.42,4.74c-1.228,1.564-2.584,3.04-3.74,4.648c-2.336,3.2-4.488,6.528-6.268,9.992
							c-3.636,6.892-6.012,14.28-6.76,21.576c-0.748,7.308,0.396,14.404,3.14,20.836c1.324,3.252,3.296,6.228,5.432,9.132
							l3.66,4.128l5.144,5.156c6.82,6.904,13.46,13.932,19.98,21.044c13.02,14.272,25.544,28.78,37.676,43.908
							c12.052,15.108,23.444,30.644,34.532,46.312c11.076,15.676,21.632,31.668,32.184,47.48
							c5.268,7.892,10.492,15.832,15.788,23.328c1.328,1.856,2.652,3.668,3.964,5.376c1.264,1.624,2.696,3.332,3.5,4.1l0.14,0.124
							l0.056,0.076l-0.28-0.212c-0.112-0.072-0.228-0.14-0.356-0.196l-0.192-0.072c-0.068-0.028-0.052-0.008-0.416-0.184
							c-0.564-0.248-1.18-0.432-1.808-0.528c-0.312-0.048-0.628-0.068-0.94-0.072c-0.232,0.012-0.572-0.012-1.524,0.044
							c-1.532,0.08-3.34,0.948-3.728,1.172c-0.352,0.192-0.688,0.416-1.004,0.66l-0.64,0.536c-0.244,0.212-0.464,0.444-0.664,0.696
							l-0.232,0.284c-0.148,0.236-0.128,0.196-0.116,0.168c-0.004,0.028,0.048-0.092,0.104-0.212c0.48-0.972,1.204-3.12,1.772-5.064
							c2.36-8.252,4.108-17.544,5.696-26.652c1.56-9.18,2.968-18.448,4.104-27.768c2.204-18.644,3.896-37.396,5.076-56.176
							C2418.317,900.709,2419.013,863.042,2417.362,825.685"/>
					</g>
					<g>
						<path style="fill:#EE7E80;" d="M1194.996,997.709c5.016,35.832,10.704,59.288,14.216,59.288
							c8.072,0,47.584-73.752,105.784-141.028c18.064-20.904,36.084-40.012,52.18-55.444c26.176-25.044,20.78-63.052-2.968-90.436
							c-37.672-43.484-118.076-89.016-150.06-85.796c-11.876,1.168-21.7,37.42-26.424,91.484
							c-1.216,14.008-2.092,29.18-2.596,45.236C1183.164,884.525,1188.516,951.425,1194.996,997.709"/>
					</g>
					<g>
						<path style="fill:#EA5C66;" d="M1194.996,997.709c5.016,35.832,10.704,59.288,14.216,59.288
							c8.072,0,47.584-73.752,105.784-141.028c18.064-20.904,36.084-40.012,52.18-55.444c26.176-25.044,20.78-63.052-2.968-90.436
							c-37.672-43.484-118.076-89.016-150.06-85.796c-11.876,1.168-21.7,37.42-26.424,91.484c0,0,21.864-33.324,44.108-31.984
							c18.356,1.128,74.132,35.452,76.264,68.4c3.304,51.132-33.572,45.24-70.452,153.7
							C1226.564,998.505,1210.3,1005.529,1194.996,997.709"/>
					</g>
					<g>
						<path style="fill:#000072;" d="M1198.634,821.443c-1.652,37.356-0.956,75.02,1.232,112.588
							c1.18,18.776,2.876,37.532,5.076,56.176c1.14,9.32,2.544,18.588,4.1,27.764c1.592,9.108,3.34,18.4,5.704,26.652
							c0.568,1.948,1.288,4.092,1.772,5.064c0.052,0.12,0.108,0.24,0.104,0.212c0.012,0.032,0.032,0.072-0.116-0.164l-0.236-0.288
							c-0.196-0.248-0.42-0.484-0.66-0.696l-0.644-0.536c-0.312-0.24-0.652-0.464-1.004-0.656c-0.384-0.228-2.192-1.092-3.724-1.172
							c-0.956-0.06-1.296-0.036-1.528-0.048c-0.312,0.008-0.624,0.028-0.94,0.076c-0.628,0.096-1.248,0.28-1.804,0.528
							c-0.368,0.176-0.352,0.156-0.424,0.18l-0.188,0.076c-0.124,0.052-0.244,0.12-0.356,0.192l-0.28,0.216l0.06-0.076l0.14-0.124
							c0.804-0.772,2.236-2.476,3.5-4.1c1.312-1.712,2.636-3.524,3.96-5.38c5.296-7.492,10.524-15.432,15.788-23.324
							c10.552-15.816,21.108-31.804,32.184-47.48c11.092-15.668,22.48-31.208,34.528-46.312
							c12.136-15.132,24.656-29.64,37.684-43.908c6.52-7.112,13.156-14.14,19.972-21.04l5.152-5.16l3.66-4.128
							c2.136-2.908,4.108-5.876,5.428-9.132c2.748-6.432,3.888-13.532,3.144-20.84c-0.748-7.296-3.124-14.68-6.76-21.572
							c-1.788-3.468-3.936-6.792-6.272-9.996c-1.152-1.608-2.512-3.084-3.74-4.648c-1.368-1.556-2.956-3.156-4.42-4.736
							c-5.92-6.376-12.692-12.292-19.512-18.112c-13.94-11.416-29.068-21.768-44.756-30.908
							c-15.66-8.996-31.976-17.584-48.18-22.732c-4.048-1.444-7.96-2.24-11.72-3.116c-1.744-0.22-3.604-0.584-5.244-0.772
							c-0.7,0.02-1.396,0.02-2.096-0.004l-1.048-0.052c-0.076-0.012-0.576-0.024-0.304-0.04c0.436-0.028,0.876-0.104,1.296-0.232
							c0.908-0.344,1.304-0.38,1.892-0.788c0.408-0.224,0.624-0.336,0.864-0.608c0.084-0.024,0.136-0.084,0.16-0.164
							c-0.052,0.076-0.132,0.176-0.22,0.244c-0.472,0.592-1.272,1.764-2.024,3.268c-1.544,2.972-2.984,6.896-4.256,10.892
							c-5.056,16.372-8.124,34.86-10.436,53.156C1200.902,784.087,1199.494,802.739,1198.634,821.443 M1171.606,820.615
							c0.316-19.28,1.188-38.588,2.964-57.98c1.848-19.436,4.084-38.768,9.612-58.932c1.496-5.084,3.128-10.188,5.776-15.752
							c1.328-2.764,2.944-5.708,5.352-8.896c0.68-0.84,1.356-1.652,2.084-2.468c0.888-0.896,1.812-1.764,2.76-2.6
							c1.232-0.932,2.384-1.784,3.82-2.596c1.696-0.82,3.092-1.592,5.196-2.084c1-0.256,2.02-0.46,3.032-0.608
							c0.86-0.116,0.96-0.064,1.476-0.1l2.512-0.072l5.032-0.048c3.08,0.22,5.916,0.656,8.884,1.028
							c5.52,1.068,10.916,2.352,15.836,4.036c10.112,3.148,19.356,7.204,28.472,11.488c9.016,4.392,17.86,9,26.28,14.244
							c16.964,10.292,33.112,21.744,48.352,34.676c7.528,6.632,14.972,13.38,21.876,21.04c1.732,1.932,3.46,3.74,5.184,5.784
							c1.7,2.176,3.492,4.268,5.08,6.54c3.18,4.528,6.148,9.24,8.576,14.296c4.892,10.06,8.188,21.164,8.98,32.824
							c0.808,11.632-1.376,23.856-6.508,34.7c-2.496,5.46-5.904,10.396-9.608,14.972c-1.928,2.192-4.004,4.264-6.008,6.336
							l-5.076,4.772c-6.74,6.412-13.364,12.996-19.892,19.7c-13.024,13.408-25.78,27.304-37.864,41.46
							c-12.08,14.256-23.712,28.984-34.84,44.148c-11.156,15.148-21.968,30.592-32.632,46.308
							c-5.376,7.856-10.688,15.724-16.452,23.688c-1.46,1.996-2.96,4-4.568,6.036c-1.7,2.084-3.264,4.088-5.908,6.584l-1.216,1.036
							l-0.616,0.504c-0.256,0.192-0.684,0.472-1.032,0.688l-1.112,0.664l-0.572,0.308c-0.2,0.1-0.3,0.176-0.82,0.368
							c-0.848,0.324-1.752,0.58-2.668,0.744c-0.456,0.08-0.916,0.144-1.372,0.188c-0.376,0.036-0.864,0.088-1.96-0.036
							c-1.816-0.156-3.936-1.032-4.552-1.468c-0.472-0.272-0.936-0.58-1.372-0.904c-0.5-0.368-0.82-0.66-0.984-0.824
							c-0.444-0.424-0.872-0.876-1.272-1.344c-0.348-0.42-0.504-0.656-0.756-1.004c-0.508-0.704-0.776-1.188-1.056-1.676
							c-0.312-0.536-0.512-0.952-0.712-1.364c-1.572-3.32-2.264-5.736-3.072-8.328c-2.9-10.016-4.652-19.44-6.388-29.028
							c-1.7-9.544-3.076-19.076-4.44-28.6c-2.788-19.032-4.948-38.096-6.764-57.2
							C1172.93,897.655,1171.022,859.247,1171.606,820.615"/>
					</g>
					<g>
						<path style="fill:#FF8CC3;" d="M2437.744,1703.592c0,48.644-52.116,88.084-116.412,88.084
							c-64.292,0-116.412-39.44-116.412-88.084c0-48.644,52.12-88.08,116.412-88.08
							C2385.628,1615.512,2437.744,1654.948,2437.744,1703.592"/>
					</g>
					<g>
						<path style="fill:#FF8CC3;" d="M1410.834,1703.592c0,48.644-52.12,88.084-116.412,88.084s-116.416-39.44-116.416-88.084
							c0-48.644,52.124-88.08,116.416-88.08S1410.834,1654.948,1410.834,1703.592"/>
					</g>
					<g>
						<path style="fill:#000072;" d="M2489.936,1592.689c18.08-17.96,38.684-31.712,60.416-43.88
							c21.784-11.944,44.784-21.688,68.52-28.936c5.872-2.012,11.948-3.348,17.908-5.052l8.98-2.42c3-0.78,6.064-1.296,9.092-1.956
							c6.068-1.256,12.144-2.5,18.224-3.648l18.42-2.428l9.2-1.188c3.064-0.428,6.168-0.456,9.252-0.708
							c6.168-0.4,12.336-0.78,18.504-1.08l4.624-0.244l4.632,0.064l9.26,0.128l18.484,0.368c2.94,0.06,5.276,2.492,5.22,5.432
							c-0.056,2.816-2.288,5.08-5.06,5.216l-0.376,0.016l-18.052,0.848l-9.012,0.368l-4.5,0.184l-4.484,0.484
							c-11.928,1.5-23.952,1.92-35.732,4.26l-17.728,2.936c-5.832,1.368-11.676,2.648-17.528,3.904
							c-2.912,0.668-5.86,1.192-8.748,1.976l-8.632,2.436c-5.728,1.708-11.568,3.044-17.2,5.052
							c-22.776,7.296-44.768,16.764-66.072,27.512c-21.184,10.764-41.944,23.456-60.196,38.024l-0.34,0.268
							c-2.304,1.836-5.652,1.464-7.488-0.84C2487.82,1597.65,2488.044,1594.581,2489.936,1592.689"/>
					</g>
					<g>
						<path style="fill:#000072;" d="M2498.124,1688.42c21.624-5.448,43.348-7.728,65.368-8.1c21.968-0.344,44.04,1.632,65.692,6.04
							c10.848,2.112,21.548,5.008,32.052,8.54c10.54,3.408,20.788,7.76,30.7,12.74c19.948,9.728,38.216,22.9,53.92,38.432
							c2.096,2.072,2.116,5.448,0.04,7.548c-1.96,1.98-5.092,2.104-7.196,0.356l-0.096-0.084
							c-16.096-13.452-33.764-24.82-52.812-33.36c-4.696-2.264-9.616-4.044-14.436-6.012c-4.952-1.676-9.816-3.548-14.832-5.016
							c-9.956-3.16-20.14-5.62-30.42-7.608c-20.564-4.044-41.584-5.78-62.644-6.256c-20.996-0.348-42.412,0.544-63.072,3.204
							l-0.284,0.036c-2.916,0.376-5.588-1.688-5.968-4.608C2493.787,1691.564,2495.539,1689.068,2498.124,1688.42"/>
					</g>
					<g>
						<path style="fill:#000072;" d="M1118.358,1600.357c-18.252-14.568-39.016-27.26-60.2-38.024
							c-21.3-10.748-43.296-20.216-66.068-27.512c-5.632-2.008-11.476-3.344-17.204-5.052l-8.632-2.436
							c-2.884-0.784-5.832-1.308-8.748-1.976c-5.848-1.256-11.696-2.536-17.528-3.904l-17.724-2.936
							c-11.784-2.34-23.808-2.76-35.732-4.26l-4.484-0.484l-4.504-0.184l-9.008-0.368l-18.056-0.848l-0.36-0.016
							c-2.936-0.136-5.208-2.632-5.068-5.572c0.132-2.816,2.44-5.012,5.216-5.076l18.484-0.368l9.256-0.128l4.632-0.064l4.624,0.244
							c6.168,0.3,12.34,0.68,18.508,1.08c3.08,0.252,6.184,0.28,9.248,0.708l9.204,1.188l18.416,2.428
							c6.084,1.148,12.156,2.392,18.228,3.648c3.028,0.664,6.088,1.176,9.088,1.956l8.984,2.42c5.96,1.704,12.032,3.04,17.904,5.052
							c23.74,7.248,46.74,16.992,68.524,28.936c21.732,12.168,42.336,25.92,60.416,43.88c2.084,2.072,2.096,5.444,0.024,7.532
							c-1.932,1.94-4.984,2.084-7.08,0.424L1118.358,1600.357z"/>
					</g>
					<g>
						<path style="fill:#000072;" d="M1115.319,1698.846c-20.66-2.66-42.076-3.556-63.072-3.208
							c-21.06,0.476-42.08,2.216-62.64,6.26c-10.284,1.988-20.464,4.448-30.42,7.604c-5.02,1.468-9.884,3.344-14.832,5.02
							c-4.82,1.964-9.744,3.744-14.436,6.012c-19.048,8.54-36.72,19.904-52.816,33.36l-0.076,0.064
							c-2.26,1.892-5.624,1.592-7.516-0.672c-1.788-2.14-1.6-5.284,0.34-7.212c15.704-15.532,33.972-28.704,53.92-38.436
							c9.916-4.98,20.16-9.332,30.704-12.736c10.5-3.532,21.204-6.432,32.048-8.54c21.656-4.412,43.724-6.388,65.696-6.044
							c22.02,0.376,43.74,2.652,65.364,8.104c2.86,0.72,4.588,3.62,3.872,6.472c-0.668,2.648-3.212,4.332-5.852,3.988
							L1115.319,1698.846z"/>
					</g>
					<g>
						<path style="fill:#000072;" d="M1873.957,1622.548c0,19.112-28.992,44.088-65.796,53.288
							c-36.84-9.2-65.832-34.176-65.832-53.288c0-16.556,49.396-20.416,65.832-20.416
							C1824.597,1602.133,1873.957,1605.993,1873.957,1622.548"/>
					</g>
					<g style="opacity:0.3;">
						<g>
							<g>
								<path style="fill:#FFFFFF;" d="M1839.28,1617.72c0,5.772-13.716,13.32-31.128,16.096
									c-17.428-2.776-31.144-10.324-31.144-16.096c0-5,23.368-6.164,31.144-6.164S1839.28,1612.72,1839.28,1617.72"/>
							</g>
						</g>
					</g>
					<g>
						<path style="fill:#FFFFFF;" d="M1931.811,1684.396c0,0,13.328,38.684-21.576,58.508c-33.588,19.076-73.1-5.684-91.692-20.152
							c-6.76-5.264-10.688-13.332-10.688-21.9v-39.128v39.128c0,8.568-3.932,16.636-10.692,21.9
							c-18.588,14.468-58.104,39.228-91.692,20.152c-34.904-19.824-21.576-58.508-21.576-58.508"/>
					</g>
					<g>
						<path style="fill:#D3DDEA;" d="M1910.217,1742.892c-33.568,19.1-73.084-5.684-91.668-20.156
							c-6.748-5.264-10.696-13.328-10.696-21.904c0,8.576-3.948,16.64-10.696,21.904c-18.588,14.472-58.104,39.256-91.672,20.156
							c-34.928-19.816-21.6-58.48-21.6-58.48h0.124c3.056,9.04,9.38,18.164,21.476,25.04c33.568,19.096,73.084-5.688,91.672-20.16
							c1.868-1.444,3.48-3.056,4.836-4.88h11.716c1.356,1.824,2.972,3.436,4.84,4.88c18.584,14.472,58.1,39.256,91.668,20.16
							c12.096-6.876,18.42-16,21.476-25.04h0.128C1931.821,1684.412,1945.145,1723.077,1910.217,1742.892"/>
					</g>
					<g>
						<path style="fill:#000072;" d="M1937.483,1682.443c2.692,5.296,4.136,10.248,5.096,15.784
							c0.96,5.448,1.044,11.188,0.188,16.968c-1.436,11.616-7.912,23.18-16.932,31.04c-8.872,7.804-19.984,12.992-31.692,14.968
							c-11.708,2.032-23.376,0.732-33.94-2.176c-10.632-2.908-20.412-7.324-29.56-12.456c-4.564-2.584-9-5.332-13.24-8.328
							c-2.132-1.48-4.216-3.02-6.28-4.588c-0.452-0.324-1.136-0.868-1.848-1.46c-0.696-0.552-1.34-1.168-1.992-1.776
							c-1.296-1.224-2.496-2.544-3.628-3.92c-4.464-5.552-7.5-12.276-8.584-19.328c-0.276-1.76-0.46-3.536-0.492-5.316l-0.04-3.944
							l-0.036-7.236l-0.144-28.948c-0.036-7.452,5.976-13.528,13.428-13.56c7.452-0.036,13.524,5.976,13.56,13.428v0.132
							l-0.132,28.948l-0.036,7.236l-0.04,3.944c-0.032,1.78-0.216,3.556-0.492,5.32c-1.084,7.052-4.12,13.776-8.584,19.332
							c-1.132,1.376-2.336,2.696-3.628,3.92c-0.656,0.604-1.3,1.224-1.996,1.772c-0.712,0.596-1.396,1.14-1.848,1.464
							c-2.06,1.568-4.148,3.112-6.28,4.588c-4.236,3.004-8.664,5.764-13.236,8.344c-9.148,5.132-18.928,9.548-29.564,12.452
							c-10.568,2.912-22.24,4.212-33.948,2.18c-11.712-1.984-22.828-7.16-31.728-14.944c-9.064-7.832-15.58-19.424-16.968-31.076
							c-0.888-5.776-0.74-11.532,0.2-16.984c0.988-5.536,2.432-10.492,5.156-15.78c1.524-2.96,5.164-4.12,8.12-2.596
							c2.152,1.108,3.356,3.332,3.264,5.6l-0.04,0.908c-0.34,8.276,0.272,17.34,2.948,24.444c2.488,7.32,6.844,12.912,12.584,17.404
							c5.9,4.556,12.896,7.784,20.256,8.78c7.388,1.112,15.368,0.16,23.3-2.264c7.94-2.384,15.812-6.116,23.364-10.62
							c3.78-2.252,7.472-4.728,11.104-7.316c1.82-1.288,3.6-2.632,5.364-4c0.524-0.388,0.772-0.608,0.988-0.792
							c0.252-0.188,0.464-0.428,0.7-0.636c0.456-0.44,0.868-0.916,1.268-1.4c1.536-1.992,2.6-4.364,2.94-6.864
							c0.084-0.62,0.152-1.248,0.148-1.884l-0.004-3.296l-0.036-7.236l-0.132-28.948h26.988l-0.14,28.948l-0.036,7.236l-0.004,3.296
							c-0.008,0.636,0.064,1.264,0.148,1.888c0.336,2.5,1.408,4.876,2.944,6.864c0.396,0.488,0.812,0.964,1.268,1.4
							c0.236,0.212,0.448,0.452,0.704,0.644c0.208,0.18,0.46,0.4,0.984,0.788c1.764,1.368,3.544,2.716,5.364,4
							c3.628,2.596,7.316,5.076,11.096,7.332c7.556,4.5,15.432,8.236,23.372,10.62c7.936,2.424,15.92,3.376,23.308,2.264
							c7.364-1.008,14.364-4.224,20.288-8.76c5.784-4.46,10.18-10.076,12.62-17.432c2.688-7.12,3.276-16.2,2.876-24.46l-0.044-0.896
							c-0.16-3.32,2.408-6.144,5.728-6.304C1934.267,1679.035,1936.439,1680.395,1937.483,1682.443"/>
					</g>
					<g>
						<g>
							<ellipse style="fill:#000072;" cx="1512.592" cy="1500.638" rx="116.853" ry="148.884"/>
						</g>
						<g>
							
								<ellipse transform="matrix(0.9426 -0.334 0.334 0.9426 -396.1187 600.7227)" style="fill:#FFFFFF;" cx="1548.905" cy="1452.316" rx="33.146" ry="48.464"/>
						</g>
						<g style="opacity:0.67;">
							<g>
								
									<ellipse transform="matrix(0.2978 -0.9546 0.9546 0.2978 -456.4268 2553.0735)" style="fill:#FFFFFF;" cx="1507.213" cy="1586.788" rx="28.484" ry="36.834"/>
							</g>
						</g>
					</g>
					<g>
						<g>
							<ellipse style="fill:#000072;" cx="2095.153" cy="1500.638" rx="116.853" ry="148.884"/>
						</g>
						<g>
							
								<ellipse transform="matrix(0.334 -0.9426 0.9426 0.334 2.2898 2907.8721)" style="fill:#FFFFFF;" cx="2058.841" cy="1452.316" rx="48.464" ry="33.146"/>
						</g>
						<g style="opacity:0.67;">
							<g>
								
									<ellipse transform="matrix(0.9546 -0.2978 0.2978 0.9546 -377.2439 697.5427)" style="fill:#FFFFFF;" cx="2100.533" cy="1586.788" rx="36.834" ry="28.484"/>
							</g>
						</g>
					</g>
				</g>
			</g>
		</g>
		<g>
			<g>
				<path style="fill:#FFFFFF;" d="M2724.373,1074.083c-22.105-42.771-30.926-92.844-21.952-143.924
					c21.781-123.98,139.945-206.828,263.925-185.047c123.98,21.782,206.828,139.945,185.047,263.925
					s-139.945,206.828-263.925,185.047c-34.485-6.059-65.773-19.593-92.527-38.616l-106.898,16.049L2724.373,1074.083z"/>
			</g>
			<g style="opacity:0.5;">
				<g>
					<path style="fill:#FFFFFF;" d="M2903.473,786.738c-116.773,13.829-202.391,113.644-201.099,228.629
						c-1.783-7.835-3.216-15.822-4.182-23.981c-14.803-125.005,74.532-238.343,199.538-253.147
						c125.005-14.804,238.343,74.533,253.147,199.538c0.97,8.195,1.468,16.335,1.563,24.404
						C3126.883,850.016,3020.284,772.904,2903.473,786.738z"/>
				</g>
			</g>
			<g>
				<path style="fill:#CED8EA;" d="M2723.312,1071.477c58.466,57.281,142.588,86.544,229.313,71.357
					c96.179-16.843,170.991-84.041,202.339-169.841c-0.238,11.656-1.358,23.442-3.438,35.283
					c-21.852,124.379-140.072,207.55-264.052,185.769c-34.485-6.059-65.768-19.618-92.514-38.686l-106.918,16.158l36.388-97.758
					C2724.043,1073.006,2723.691,1072.234,2723.312,1071.477z"/>
			</g>
			<g>
				<path style="fill:#000072;" d="M2927.427,1213.844c-14.199,0-28.496-1.238-42.771-3.748
					c-33.887-5.952-65.361-18.591-93.662-37.595l-100.537,15.093c-5.691,0.872-11.411-1.362-15.042-5.837
					c-3.628-4.47-4.619-10.527-2.607-15.923l33.865-90.82c-22.156-46.111-29.167-97.004-20.266-147.668
					c11.287-64.241,46.912-120.239,100.317-157.686c53.408-37.441,118.193-51.856,182.434-40.562
					c64.241,11.287,120.239,46.912,157.686,100.317c37.444,53.406,51.848,118.196,40.562,182.434
					c-11.287,64.241-46.912,120.239-100.317,157.685C3025.552,1198.656,2977.122,1213.844,2927.427,1213.844z M2794.942,1139.208
					c3.357,0,6.655,1.04,9.421,3.008c25.728,18.293,54.634,30.356,85.92,35.854c55.669,9.775,111.841-2.708,158.137-35.164
					c46.292-32.456,77.173-80.999,86.958-136.682c20.195-114.951-56.895-224.902-171.846-245.1
					c-114.983-20.181-224.905,56.894-245.1,171.846c-8.079,45.996-1.03,92.209,20.383,133.645c2.107,4.075,2.393,8.85,0.791,13.147
					l-26.689,71.577l79.609-11.951C2793.331,1139.269,2794.139,1139.208,2794.942,1139.208z"/>
			</g>
			<g>
				<path style="fill:#FF0068;" d="M2853.041,905.539L2853.041,905.539c19.725-19.725,51.705-16.191,71.43,3.534l3.07,3.07
					l3.07-3.07c19.725-19.725,51.705-23.259,71.43-3.534v0c19.725,19.725,19.725,51.705,0,71.43l-3.07,3.07l-62.015,62.015
					c-5.2,5.2-13.631,5.2-18.831,0l-62.015-62.015l-3.07-3.07C2833.316,957.244,2833.316,925.264,2853.041,905.539z"/>
			</g>
		</g>
	</g>
</g>
</svg>
